<svg xmlns="http://www.w3.org/2000/svg" width="392.506" height="726" viewBox="0 0 392.506 726">
  <path id="image-map-thai" d="M167.766,400.538a1.043,1.043,0,0,1,0-1l.621-.98a.827.827,0,0,0-.081-.938l-1.085-1.207a8.784,8.784,0,0,0-.857-.809l-1.682-1.346a.825.825,0,0,1-.229-.912l.473-1.1a6.774,6.774,0,0,0,.348-1.122l.29-1.445a1.242,1.242,0,0,0-.3-1l-.1-.1a.519.519,0,0,1,.044-.787l.641-.513a2.1,2.1,0,0,1,1.052-.391l1.736-.062a.691.691,0,0,0,.644-.608l.1-1.116a3.53,3.53,0,0,0-.124-1.152l-.27-.853c-.1-.31-.238-.822-.31-1.139l-.049-.2a1.553,1.553,0,0,1,.2-1.063l.688-1a1.475,1.475,0,0,0,.18-1.059l-.112-.422a2.73,2.73,0,0,1-.009-1.144l.131-.521a1.837,1.837,0,0,0-.118-1.093,2.97,2.97,0,0,1-.26-1.112v-.59a3.16,3.16,0,0,0-.251-1.126l-.332-.7a7.05,7.05,0,0,1-.386-1.109l-.147-.622a3.822,3.822,0,0,0-.448-1.042,1.155,1.155,0,0,1-.065-1.006l.131-.281a1.4,1.4,0,0,0-.017-1.066l-.1-.193a2.976,2.976,0,0,1-.265-1.119v-.9a3.554,3.554,0,0,1,.225-1.138l.28-.678a2.058,2.058,0,0,0,.072-1.117l-.112-.423a2,2,0,0,0-.624-.924l-.723-.542a5.433,5.433,0,0,1-.841-.816l-.1-.119a2.4,2.4,0,0,1-.435-1.047l-.078-.7a3.351,3.351,0,0,0-.325-1.057,1.432,1.432,0,0,1-.065-1.025l.233-.657a.749.749,0,0,0-.312-.857l-.754-.443a3.239,3.239,0,0,1-.846-.785l-.265-.383a2.067,2.067,0,0,0-.9-.673l-.443-.148a1.219,1.219,0,0,1-.709-.759l-.432-1.669a2.715,2.715,0,0,0-.558-1l-1.682-1.751a1.148,1.148,0,0,1-.251-1l.2-.739a.8.8,0,0,0-.354-.862l-1.162-.663a3.412,3.412,0,0,0-1.1-.362l-.6-.071a.989.989,0,0,1-.76-.634l-.07-.225a2,2,0,0,0-.659-.9l-4.76-3.286a2.9,2.9,0,0,1-.762-.858l-1.111-2.083a.611.611,0,0,0-.807-.256l-.4.2a.825.825,0,0,1-.924-.175l-1.085-1.207a2.177,2.177,0,0,0-.971-.568l-1.141-.26a1.116,1.116,0,0,1-.741-.7l-.4-1.366a1.717,1.717,0,0,0-.677-.864l-.229-.134a1.794,1.794,0,0,1-.692-.86l-.473-1.48a5.651,5.651,0,0,0-.493-1.064l-.417-.665a7.91,7.91,0,0,1-.529-1.051L136,321.911a.723.723,0,0,0-.794-.425l-.3.065a.482.482,0,0,1-.6-.466l-.056-1.32a2.121,2.121,0,0,0-.393-1.052l-1.763-2.2a3.184,3.184,0,0,0-.9-.725l-.4-.2a2.4,2.4,0,0,1-.832-.771l-.643-1.07a2.5,2.5,0,0,0-.826-.784l-.728-.384a1.674,1.674,0,0,1-.7-.84l-.371-1.167a3.059,3.059,0,0,0-.588-.991l-1.268-1.332a1.7,1.7,0,0,1-.408-1.019v-1.111a1.8,1.8,0,0,0-.393-1.032l-.049-.053a1.209,1.209,0,0,1-.23-1.01l.3-1.054a1.85,1.85,0,0,0-.086-1.1l-.858-1.846a3.09,3.09,0,0,0-.707-.91l-.231-.189a.7.7,0,0,1-.149-.879l.845-1.387a.9.9,0,0,0-.067-.962l-.189-.233a5.268,5.268,0,0,0-.858-.8l-.806-.57a.932.932,0,0,1-.34-.913l.235-.938a4.583,4.583,0,0,1,.452-1.078l.843-1.387a.974.974,0,0,0-.036-.985l-.356-.5a.538.538,0,0,1,.021-.741,1.435,1.435,0,0,1,.947-.152l.505.095a1.307,1.307,0,0,0,1.011-.3l.912-.857a5.336,5.336,0,0,0,.739-.908l.215-.35a8.051,8.051,0,0,0,.517-1.022.66.66,0,0,1,.777-.364l1.883.519a5.109,5.109,0,0,1,1.073.466l.868.53c.276.169.449.047.382-.27l-.173-.823a1.369,1.369,0,0,1,.26-1.03l.383-.452a1.661,1.661,0,0,0,.336-1.041l-.014-.177a.539.539,0,0,1,.545-.588h.488a2.13,2.13,0,0,0,1.068-.347l.918-.662a1.047,1.047,0,0,1,1-.072l1.351.7a1.491,1.491,0,0,1,.667.846l.131.52c.078.316.287.352.466.08l.917-1.408a2.347,2.347,0,0,0,.322-1.085v-.7a8.625,8.625,0,0,1,.1-1.173l.221-1.336a2.643,2.643,0,0,0-.108-1.136l-.943-2.54a5.966,5.966,0,0,1-.279-1.141l-.167-1.327a4.009,4.009,0,0,1,.06-1.163l.359-1.557a2.978,2.978,0,0,0-.006-1.149l-.555-2.29a2.435,2.435,0,0,1,.047-1.136l.981-2.943c.1-.308.294-.8.423-1.1l.256-.586a6.891,6.891,0,0,0,.359-1.118l.066-.3a1.973,1.973,0,0,0-.141-1.106l-.2-.4a7.835,7.835,0,0,1-.427-1.1l-.092-.323a1.337,1.337,0,0,1,.2-1.039l.952-1.249a.912.912,0,0,0,.04-.968l-.1-.149a3.586,3.586,0,0,1-.42-1.071,2.88,2.88,0,0,0-.464-1.042l-.322-.418a.515.515,0,0,1,.147-.771l.029-.019a1.349,1.349,0,0,1,1.055-.085l.986.4a.943.943,0,0,0,.955-.21l.96-1.017a1.453,1.453,0,0,0,.34-1.016l-.077-.7a.884.884,0,0,1,.469-.837l.494-.229a1.84,1.84,0,0,1,1.1-.088l.321.092a5.08,5.08,0,0,0,1.161.163h1.318a1.176,1.176,0,0,1,.9.5l.215.347a.51.51,0,0,0,.771.134l1.682-1.345a.881.881,0,0,0,.259-.924l-.012-.037a1.352,1.352,0,0,1,.116-1.052l.095-.151a1.7,1.7,0,0,0,.2-1.078l-.081-.4a.9.9,0,0,1,.391-.882l1.592-.957a1.24,1.24,0,0,0,.536-.893l.045-.9a2.777,2.777,0,0,0-.179-1.059,1.79,1.79,0,0,1-.046-1.037l.718-2.511a.885.885,0,0,0-.323-.9l-1.738-1.2a1.76,1.76,0,0,1-.617-.914l-.259-1.141c-.072-.315-.32-.387-.55-.158l-.622.624a1.835,1.835,0,0,0-.463,1.006l-.119,1.531a1.625,1.625,0,0,1-.5.97l-1.077.9a5.784,5.784,0,0,1-.98.647l-.192.1a2.575,2.575,0,0,0-.852.76l-.918,1.407c-.177.272-.463.683-.636.912a.625.625,0,0,1-.815.107l-.35-.214a1.382,1.382,0,0,1-.57-.9l-.178-1.535a8.691,8.691,0,0,0-.23-1.154l-.3-1.052a3.541,3.541,0,0,0-.532-1.03l-.095-.119a1.06,1.06,0,0,1-.127-1l.453-1.005a.96.96,0,0,0-.163-.969l-.961-1.017a5.238,5.238,0,0,1-.68-.952l-.491-.934a6.779,6.779,0,0,0-.653-.976l-.286-.343a1.47,1.47,0,0,1-.281-1.036l.118-.71a1.7,1.7,0,0,0-.236-1.07l-.478-.694a1.86,1.86,0,0,0-.906-.638l-.42-.113a1.2,1.2,0,0,1-.749-.715l-.27-.853a6.464,6.464,0,0,1-.23-1.137,1.461,1.461,0,0,0-.534-.917l-1.226-.876a.669.669,0,0,1-.188-.856l.664-1.163a1.748,1.748,0,0,1,.858-.687l.225-.068a2,2,0,0,0,.9-.66l.264-.383a.671.671,0,0,0-.112-.871l-.561-.48a.835.835,0,0,1-.2-.923l.552-1.216a.915.915,0,0,0-.173-.954l-.832-.833a1.013,1.013,0,0,1-.214-.973l.011-.036a1.1,1.1,0,0,0-.19-1l-.049-.053a3.094,3.094,0,0,1-.549-.963,1.307,1.307,0,0,0-.626-.729,1.4,1.4,0,0,1-.643-.774l-.068-.226a2.353,2.353,0,0,0-.628-.942l-.968-.807a1.722,1.722,0,0,0-1.042-.342l-2.157.137a1.225,1.225,0,0,1-.943-.437l-.542-.723a2.8,2.8,0,0,1-.444-1.056l-.029-.187a.866.866,0,0,0-.612-.689.808.808,0,0,1-.578-.692l-.092-.908a2.021,2.021,0,0,0-.464-1.017l-.96-1.016a2.191,2.191,0,0,1-.489-1.015l-.041-.289a.871.871,0,0,0-.667-.688l-.606-.107a2.041,2.041,0,0,1-.983-.537l-2.848-3.091a7,7,0,0,0-.877-.782l-.19-.138a.708.708,0,0,1-.2-.871l.6-1.142a.517.517,0,0,0-.276-.738l-.775-.3a3.639,3.639,0,0,1-.98-.619l-.911-.857a1.187,1.187,0,0,1-.315-.985l.08-.4a.848.848,0,0,0-.4-.858l-.315-.169a4.854,4.854,0,0,1-.938-.7,1.016,1.016,0,0,1-.214-.973l.012-.036a.727.727,0,0,0-.311-.847l-1.891-1.082a4.186,4.186,0,0,1-.9-.738l-.682-.779a5.471,5.471,0,0,0-.877-.775l-2.565-1.735a3.835,3.835,0,0,1-.828-.813l-1.51-2.158a5.94,5.94,0,0,0-.781-.876l-.887-.781a1.209,1.209,0,0,1-.351-.975l.128-.812a1.3,1.3,0,0,0-.325-1l-.831-.833a4.851,4.851,0,0,1-.7-.935l-.058-.111a8.421,8.421,0,0,0-.653-.979l-.512-.639a3.248,3.248,0,0,1-.512-1.035l-.026-.106a3.053,3.053,0,0,1-.02-1.149l.379-1.763a1.441,1.441,0,0,1,.644-.856l.52-.277a4.808,4.808,0,0,0,.94-.7l.205-.206a.947.947,0,0,0,.188-.962l-1.31-3.081a2.1,2.1,0,0,0-.741-.841l-.23-.133a.785.785,0,0,1-.337-.863l.07-.225a1.148,1.148,0,0,0-.224-1l-.248-.272a1.094,1.094,0,0,1-.2-.994l.231-.658a.845.845,0,0,0-.279-.906L97.7,142.8a3.607,3.607,0,0,1-.786-.852l-1.362-2.224a.846.846,0,0,1,.083-.945l.883-.993a.69.69,0,0,0,0-.884l-.781-.886a2.434,2.434,0,0,0-.958-.608l-1.368-.4a.8.8,0,0,0-.869.341l-.331.55a2.5,2.5,0,0,0-.3,1.08.786.786,0,0,1-.572.716l-.1.025a1.125,1.125,0,0,1-.983-.28l-2.2-2.277a1.8,1.8,0,0,1-.433-1.015l-.061-1.632a3.115,3.115,0,0,0-.292-1.116l-.811-1.556c-.149-.289-.42-.745-.6-1.015l-.179-.267a3.642,3.642,0,0,1-.444-1.071l-.08-.4a2.148,2.148,0,0,0-.549-.984l-.7-.652a3.7,3.7,0,0,1-.683-.938l-.331-.7a1.2,1.2,0,0,1,.066-1.034l.1-.149c.173-.274.384-.241.469.072l.112.422a.857.857,0,0,0,.743.6l1.216.051a1.043,1.043,0,0,1,.826.568l.257.585c.129.3.369.77.534,1.051l.134.23a.852.852,0,0,0,.873.376l.619-.147a2.352,2.352,0,0,1,1.131.066l1.183.43a.835.835,0,0,0,.9-.274l.448-.609a2.018,2.018,0,0,1,.915-.643l1.368-.4a1.366,1.366,0,0,0,.776-.634,1.487,1.487,0,0,1,.762-.669l1.494-.536a1.578,1.578,0,0,1,1.083.063l.4.2a.973.973,0,0,0,.98-.117l.453-.383a1.175,1.175,0,0,1,1.011-.2l.755.253a.417.417,0,0,0,.58-.4l.169-5.07a1.778,1.778,0,0,0-.362-1.042l-.383-.453a1.5,1.5,0,0,1-.3-1.036l.353-2.477a1.332,1.332,0,0,0-.335-1l-.205-.208a1.346,1.346,0,0,1-.342-1l.159-1.225a1.222,1.222,0,0,0-.372-.97l-2.644-2.255a.6.6,0,0,1-.137-.8,2.1,2.1,0,0,1,.874-.6l1.066-.356a1.159,1.159,0,0,0,.689-.762l.16-.723c.07-.317.165-.84.211-1.162l.041-.289a2.083,2.083,0,0,1,.5-1l.1-.1c.229-.229.626-.582.879-.785l1.054-.83a7.933,7.933,0,0,1,.985-.644l.52-.277a1.108,1.108,0,0,0,.532-.868l.082-4.55a1.782,1.782,0,0,0-.376-1.036l-2.039-2.34a.314.314,0,0,1,.192-.561l1.447-.289A.51.51,0,0,0,106,87.18l-.147-.442a6.217,6.217,0,0,0-.5-1.063l-.214-.348a3.308,3.308,0,0,1-.393-1.087l-.147-1.02a2.016,2.016,0,0,1,.211-1.1l.555-.958a4.335,4.335,0,0,0,.4-.928,1.95,1.95,0,0,1,.551-.8l1.505-1.309a.826.826,0,0,0,.192-.922l-.43-.912a2.009,2.009,0,0,1-.126-1.111l.162-.723a.771.771,0,0,1,.718-.576h.173a2.976,2.976,0,0,0,1.119-.265l.818-.409a3.609,3.609,0,0,1,1.117-.31l.178-.014a1.767,1.767,0,0,0,.994-.475l.857-.912a2.546,2.546,0,0,1,.973-.592l.323-.092a1.263,1.263,0,0,0,.755-.723l.147-.442a1.866,1.866,0,0,0-.034-1.11l-.394-.988a1.758,1.758,0,0,1-.009-1.1l.413-1.085a5.681,5.681,0,0,0,.276-1.139l.078-.7a1.088,1.088,0,0,1,.612-.806l.468-.187a.706.706,0,0,1,.845.292l.552.957a.551.551,0,0,0,.789.184l.267-.178a.935.935,0,0,1,.976.009l.384.264a7.932,7.932,0,0,1,.9.754l.938.938a2.862,2.862,0,0,0,.98.595l.853.27a.968.968,0,0,1,.619.765l.1,1.012a.917.917,0,0,0,.525.745,2.855,2.855,0,0,0,1.055.082l.5-.061a2.866,2.866,0,0,0,1.072-.409l.694-.476a1.069,1.069,0,0,1,1.008-.056l.521.277a1.234,1.234,0,0,0,1.041,0l.313-.169a2.208,2.208,0,0,1,1.107-.21l2.37.279a1.787,1.787,0,0,0,1.068-.274l.5-.356a1.2,1.2,0,0,1,.845-.24,1.931,1.931,0,0,1,.741.561l.707.858a.469.469,0,0,0,.751,0l.708-.858a1.292,1.292,0,0,1,.965-.417l.384.025a1.173,1.173,0,0,0,.93-.444l.568-.8a1.656,1.656,0,0,1,.923-.585l1.231-.214a8.25,8.25,0,0,1,1.174-.1h2.778a1.392,1.392,0,0,0,.959-.464l1.661-2.1a.688.688,0,0,1,.872-.154l.867.53a7.147,7.147,0,0,1,.939.709l.486.449a1.683,1.683,0,0,1,.486.869.513.513,0,0,0,.469.469,1.719,1.719,0,0,0,.878-.369l.641-.511a2.323,2.323,0,0,1,1.049-.428l.908-.092a.972.972,0,0,0,.765-.622l.168-.54a2.336,2.336,0,0,1,.632-.939l.86-.708a1.182,1.182,0,0,0,.377-.962l-.154-1.121a1.948,1.948,0,0,0-.443-.952,1.368,1.368,0,0,1-.366-.832,1.5,1.5,0,0,1,.417-.887,1,1,0,0,0,.209-.97l-.21-.56a1.566,1.566,0,0,1,.057-1.082l.1-.194a2.97,2.97,0,0,0,.265-1.118V52.7a2.875,2.875,0,0,1,.272-1.113l.6-1.142c.15-.289.392-.761.539-1.052l.2-.4a.979.979,0,0,1,.855-.5l.7.039a1.87,1.87,0,0,0,1.062-.322l.721-.541a2.075,2.075,0,0,1,1.065-.354h.8a3.564,3.564,0,0,1,1.136.229l.889.377a3.081,3.081,0,0,0,.962.229,1.546,1.546,0,0,1,.853.4l1.419,1.29a4.572,4.572,0,0,0,.853.6,1.358,1.358,0,0,0,.965-.01l.466-.187c.3-.121.8-.3,1.113-.389l.954-.286a4.011,4.011,0,0,1,1.154-.133l.489.031a2.23,2.23,0,0,0,1.1-.267L183,48.553a4.453,4.453,0,0,0,.893-.751l.581-.67a1.457,1.457,0,0,1,.96-.447.874.874,0,0,0,.766-.557l.552-1.592a1,1,0,0,0-.235-.966L185.183,42.3a1.782,1.782,0,0,1-.473-1l-.121-1.634a4.222,4.222,0,0,0-.276-1.132l-.16-.373a3.141,3.141,0,0,0-.674-.937l-.993-.882a.464.464,0,0,1-.076-.705.971.971,0,0,1,.91-.086l1.93.8c.3.123.795.313,1.1.424l1.8.644c.306.109.745.269.974.354a1.469,1.469,0,0,0,.954-.088l.071-.032a1.088,1.088,0,0,1,1.008.116l.832.636a1.034,1.034,0,0,0,1,.095l2.069-1.034a1.631,1.631,0,0,1,1.088-.077l.756.251a1.858,1.858,0,0,0,1.107-.034l.988-.393a1.738,1.738,0,0,0,.8-.755l1.371-2.891a1.6,1.6,0,0,1,.813-.721l1.067-.354a3.487,3.487,0,0,1,1.149-.143l.177.014a1.954,1.954,0,0,0,1.057-.267.828.828,0,0,1,.887,0,2.3,2.3,0,0,1,.628.864l.1.251a3.356,3.356,0,0,0,.629.97l.1.1.836.835a1.175,1.175,0,0,0,.991.281l.621-.146a.6.6,0,0,1,.719.437l.131.522a2.91,2.91,0,0,0,.531,1.017l.682.779a1.345,1.345,0,0,1,.27,1.021l-.387,1.866a.682.682,0,0,0,.442.765l1.692.563a1.047,1.047,0,0,0,.979-.23l.1-.1a.937.937,0,0,0,.182-.959l-.256-.585a.523.523,0,0,1,.326-.721l1.479-.474a1.472,1.472,0,0,0,.8-.723l.16-.373a3.041,3.041,0,0,0,.233-.959,1.449,1.449,0,0,1,.417-.836l1.249-1.249a1.64,1.64,0,0,1,1.009-.417h.381a3.479,3.479,0,0,1,1.136.23l.892.374a2.81,2.81,0,0,1,.917.688l.609.75a4.1,4.1,0,0,1,.57,1.015l.751,2.117c.108.306.307.8.442,1.095l.554,1.218a2.527,2.527,0,0,0,.73.873l.383.266a1.145,1.145,0,0,1,.44.924l-.014.177a.744.744,0,0,0,.525.744l.006,0a3.033,3.033,0,0,1,1.012.547l.991.883a.948.948,0,0,0,.97.128l.4-.2a2.56,2.56,0,0,1,1.117-.221l.281.02a.517.517,0,0,1,.481.623l-.306,1.652c-.058.318-.126.845-.147,1.169l-.026.386a5.5,5.5,0,0,1-.225,1.149l-.981,2.943c-.1.308-.281.809-.4,1.112l-.413,1.085a5.7,5.7,0,0,0-.279,1.138l-.177,1.535a1.974,1.974,0,0,1-.485,1.005l-.52.52a3.117,3.117,0,0,1-.974.616l-.346.124a1.064,1.064,0,0,0-.634.784l-.052.392a3.1,3.1,0,0,1-.4,1.081l-.917,1.407c-.178.272-.44.636-.583.807a1.179,1.179,0,0,0-.124.888l.146.621a1.625,1.625,0,0,0,.639.884l.348.215a.8.8,0,0,1,.325.873l-.27.853a.86.86,0,0,0,.306.9l.075.052a.947.947,0,0,1,.351.914l-.046.2a1.056,1.056,0,0,0,.32.954l.969.806a1.342,1.342,0,0,1,.427.969l-.051,1.216a1.646,1.646,0,0,0,.371,1.027l.248.271a1.388,1.388,0,0,0,.986.4l.384-.025a1.828,1.828,0,0,1,1.06.318l1.248.952a.512.512,0,0,0,.769-.152l1.174-2a1.261,1.261,0,0,1,.888-.552l.281-.02a2.927,2.927,0,0,1,1.132.19l4.019,1.723a1.786,1.786,0,0,1,.791.77l.131.281a.37.37,0,0,0,.652.106l2.525-2.682a8.725,8.725,0,0,0,.736-.919l1.526-2.253a1.247,1.247,0,0,1,.923-.489h1.213c.325,0,.826.024,1.112.052a5.459,5.459,0,0,0,1.106-.031l1.019-.146a3.331,3.331,0,0,1,1.153.078l.323.092a5.264,5.264,0,0,1,1.071.47l.868.53a5.136,5.136,0,0,1,.9.743l.449.486a1,1,0,0,0,.961.248l1.067-.356a2.569,2.569,0,0,1,1.138-.062l.3.063a1.142,1.142,0,0,0,.976-.311l.35-.379a1.064,1.064,0,0,1,.968-.281l1.57.422a1.08,1.08,0,0,1,.7.729l.047.2a9.922,9.922,0,0,1,.182,1.163l.006.075a3.636,3.636,0,0,1-.127,1.152l-.169.539a4.6,4.6,0,0,0-.177,1.138.645.645,0,0,1-.588.622l-1.323.111a.95.95,0,0,0-.765.612l-.168.54a9.355,9.355,0,0,0-.265,1.148l-.137.915c-.049.322-.1.85-.118,1.174l-.042.8a1.038,1.038,0,0,0,.485.877l.843.468a1.02,1.02,0,0,1,.476.876l-.025.384a3.6,3.6,0,0,0,.147,1.151l.668,2.005a3.564,3.564,0,0,1,.149,1.149l-.236,3.615a1.5,1.5,0,0,0,.379,1.008l1.04,1.04c.23.229.621.59.868.8l1.184,1.008a11.446,11.446,0,0,1,.85.817l.348.379a.81.81,0,0,1,.077.932l-.5.78a3.864,3.864,0,0,1-.8.845l-.611.448a2.274,2.274,0,0,0-.675.906l-.123.346a10.046,10.046,0,0,0-.3,1.026,2.346,2.346,0,0,1-.509.9l-.755.8a1.73,1.73,0,0,0-.4,1.022v1.111a10.6,10.6,0,0,1-.078,1.175l-.052.392a4.149,4.149,0,0,0,.046,1.164l.065.3a2.033,2.033,0,0,1-.129,1.111l-.535,1.122a3.927,3.927,0,0,0-.306,1.106,1.318,1.318,0,0,0,.387.969l1.207,1.085a.7.7,0,0,1,.1.883l-.478.693c-.183.267-.481.709-.662.978l-.179.269a1.859,1.859,0,0,1-.9.649l-.736.2a1.149,1.149,0,0,0-.725.627,2.128,2.128,0,0,0,0,1.04v.006a.926.926,0,0,1-.321.919l-.609.447a6.907,6.907,0,0,0-.872.79l-.147.163a1.931,1.931,0,0,1-.98.529l-.187.03a1.3,1.3,0,0,0-.845.557,1.87,1.87,0,0,0-.208.939,1.1,1.1,0,0,1-.409.838l-.639.511a2.044,2.044,0,0,0-.606.942l-.131.521a1.24,1.24,0,0,0,.255,1.011l.246.271a10.7,10.7,0,0,1,.734.923l.265.383a1.867,1.867,0,0,0,.908.638l.42.113a1.77,1.77,0,0,1,.883.621,2.037,2.037,0,0,0,.871.665l.657.231a.394.394,0,0,1,.188.658l-.512.641a1.965,1.965,0,0,0-.368,1.052v.486a9.294,9.294,0,0,0,.09,1.174l.029.187a2.539,2.539,0,0,0,.465,1.04l.708.859a.93.93,0,0,1,.086.97l-.358.638a3.794,3.794,0,0,0-.373,1.1l-.144,1.019a7,7,0,0,0-.051,1.174l.035.592a2.177,2.177,0,0,0,.406,1.051l.511.642a.628.628,0,0,1-.072.852l-.055.05a4.272,4.272,0,0,1-.91.6,2.986,2.986,0,0,0-.855.658l-.48.562a2.88,2.88,0,0,0-.52,1.024l-.147.621a3.466,3.466,0,0,1-.484,1.051l-.449.609a3.029,3.029,0,0,1-.871.754l-.728.384c-.287.153-.759.4-1.05.541l-.4.2a.992.992,0,0,0-.529.785,6.845,6.845,0,0,0,.116,1.1l.081.4a2.429,2.429,0,0,1-.041,1.049,1.361,1.361,0,0,1-.7.693l-.679.28a.507.507,0,0,0-.253.738l.246.434a.764.764,0,0,1-.147.907l-.162.148a1.272,1.272,0,0,0-.367.981l.062.5a1.688,1.688,0,0,1-.281,1.06l-.541.721a1.458,1.458,0,0,0-.226,1.047l.16.723a1.167,1.167,0,0,1-.3.986l-1.647,1.58a1.583,1.583,0,0,0-.427,1v.382a1.159,1.159,0,0,0,.506.894l.03.019a2.542,2.542,0,0,0,1.1.3h.694a3.764,3.764,0,0,1,1.141.215l1.817.714a4.129,4.129,0,0,1,1,.6l.67.581a3.174,3.174,0,0,1,.654.8,1.34,1.34,0,0,0,.678.573,5.2,5.2,0,0,1,.965.475l.465.3a3.631,3.631,0,0,0,1.078.429l.505.093a.86.86,0,0,0,.861-.41l.9-1.668a1.535,1.535,0,0,1,.853-.664l.521-.131a1.529,1.529,0,0,0,.852-.663l.9-1.668a4.87,4.87,0,0,1,.7-.939l1.144-1.143a7.456,7.456,0,0,0,.746-.909l.178-.267a1.614,1.614,0,0,1,.908-.6l.506-.095a1.949,1.949,0,0,0,.964-.559l.483-.562a1.058,1.058,0,0,1,.906-.342.805.805,0,0,0,.8-.418l.386-.728a.851.851,0,0,0-.141-.94l-.1-.1c-.229-.23-.152-.4.172-.379l.384.025a2.014,2.014,0,0,0,1.081-.287l.893-.595a.42.42,0,0,1,.669.235l.27.853c.1.31.265.312.372,0l.445-1.28a1.275,1.275,0,0,1,.762-.72l.322-.093a2.963,2.963,0,0,0,.933-.474,1.184,1.184,0,0,1,.938-.17l.1.026c.313.08.432-.082.26-.357l-.415-.665a1.462,1.462,0,0,1-.137-1.065l.27-.852a.512.512,0,0,1,.716-.32l.071.032a.617.617,0,0,0,.8-.285l.515-1.026a1.258,1.258,0,0,1,.847-.612l.29-.042a6.557,6.557,0,0,0,1.138-.29l.561-.21a3.308,3.308,0,0,1,1.143-.174l.7.037a.594.594,0,0,0,.624-.557l.036-.591a4.544,4.544,0,0,1,.246-1.142l.1-.251c.116-.3.307-.8.423-1.1l.1-.253a5.137,5.137,0,0,0,.266-1.141l.1-1.115a2.044,2.044,0,0,1,.455-1.022l.449-.488a.953.953,0,0,1,.954-.226l.56.21c.3.114.795.321,1.088.458l.494.23c.294.137.745.366,1,.51a3.335,3.335,0,0,0,1.056.325l.7.08a.688.688,0,0,0,.723-.51l.146-.622a1.5,1.5,0,0,1,.658-.853l.519-.277a2.418,2.418,0,0,0,.815-.791l.248-.433a3.88,3.88,0,0,1,.749-.888l.86-.709a3.973,3.973,0,0,0,.755-.883l.444-.754a8.411,8.411,0,0,1,.68-.96l.384-.453a2.821,2.821,0,0,1,.929-.67l.466-.187a1.655,1.655,0,0,1,1.068-.01,3.6,3.6,0,0,0,1.112.208h1.216a1.643,1.643,0,0,1,1.006.417,1.794,1.794,0,0,1,.452,1.008l.036.591a1.144,1.144,0,0,0,.5.851,4.919,4.919,0,0,1,.888.678l.726.729c.23.229.6.612.816.852l.35.379a3.814,3.814,0,0,0,.919.7,1.972,1.972,0,0,1,.771.8l.23.491a1.212,1.212,0,0,0,.835.617l1.852.255a2.187,2.187,0,0,1,1.016.484l.8.756c.238.223.641.568.9.769l.531.415a2.606,2.606,0,0,0,1.046.453l.915.138c.322.049.847.131,1.168.184l.086.014a5.847,5.847,0,0,0,1.17.052l1.531-.117c.325-.026.855-.046,1.18-.046h.694a.917.917,0,0,1,.8.553l.211.56a4.617,4.617,0,0,1,.236,1.144l.046.9a2.3,2.3,0,0,1-.276,1.1l-.328.549a2.514,2.514,0,0,0-.3,1.1v.174a.919.919,0,0,0,.521.8,6.731,6.731,0,0,0,1.1.311l.608.108a2.413,2.413,0,0,1,1.019.5l.272.248a.374.374,0,0,0,.646-.123,1.525,1.525,0,0,0-.042-1.056l-.331-.7a.653.653,0,0,1,.261-.828l.433-.248a4.5,4.5,0,0,1,1.091-.414l.823-.173a4.224,4.224,0,0,0,1.085-.425l.029-.019a5.827,5.827,0,0,0,.925-.72l.832-.833c.229-.229.611-.6.847-.822l.911-.857a4.434,4.434,0,0,1,.965-.656l.493-.23a6.766,6.766,0,0,1,1.111-.381l1.142-.259a3.578,3.578,0,0,0,1.057-.474l.5-.356a1.086,1.086,0,0,1,1.01-.08l.611.306a8.8,8.8,0,0,1,1.005.611l.19.141a1.221,1.221,0,0,0,1.029.136l.251-.1a2.7,2.7,0,0,0,.932-.667l.284-.343a4.233,4.233,0,0,0,.588-1.006l.209-.561a2.222,2.222,0,0,0,.063-1.127l-.129-.521c-.08-.315-.178-.836-.22-1.158l-.052-.392a1.773,1.773,0,0,1,.234-1.055,1.975,1.975,0,0,1,.872-.656l.443-.147a7.4,7.4,0,0,0,1.075-.478l.638-.357a1.537,1.537,0,0,0,.649-.866l.148-.622a6.212,6.212,0,0,0,.134-1.165v-.8a1.138,1.138,0,0,1,.51-.887l.958-.555a10.7,10.7,0,0,1,1.059-.52l1.2-.49a2.376,2.376,0,0,1,1.121-.119,1.1,1.1,0,0,0,.947-.353l.189-.231a.586.586,0,0,0-.086-.828l-1.789-1.445a.752.752,0,0,1-.187-.894l.6-1.142a3.28,3.28,0,0,1,.738-.891l1.051-.83a2.712,2.712,0,0,1,1.046-.464l.71-.119c.321-.052.842-.154,1.159-.224l1.661-.369a2.385,2.385,0,0,1,1.131.076l.872.322a3.692,3.692,0,0,0,1.144.185l2.256-.068a2.517,2.517,0,0,1,1.108.271l1.574.882a1.687,1.687,0,0,0,1.086.136l.422-.112a1.6,1.6,0,0,1,1.077.152l1.071.642a7.768,7.768,0,0,1,.948.7l.993.882a4.39,4.39,0,0,0,.985.626l.372.16a2.027,2.027,0,0,0,1.114.083l1.255-.327a3.181,3.181,0,0,1,1.153-.044l1.129.206a1.874,1.874,0,0,1,.957.56l.706.861c.206.25.563.643.794.872a1.341,1.341,0,0,0,.938.366,1.837,1.837,0,0,0,.938-.469l1.668-1.667a1.469,1.469,0,0,1,1.005-.376l.28.02a1.932,1.932,0,0,1,1.019.448l1.016.96a5.479,5.479,0,0,1,.743.908l1.253,2.018c.172.276.434.736.585,1.025l.6,1.142c.149.289.388.762.527,1.056l.638,1.331a3.131,3.131,0,0,1,.255,1.123v.279a1.466,1.466,0,0,0,.448.975l1.29,1.106c.247.211.649.559.894.772l1.506,1.309a4.673,4.673,0,0,1,.755.892l.529.868a9.437,9.437,0,0,1,.537,1.047l1.521,3.6a9.8,9.8,0,0,1,.373,1.117l.129.521a1.355,1.355,0,0,0,.685.806l2.561,1.1a3.05,3.05,0,0,1,.932.68l.581.67a5.537,5.537,0,0,1,.651.974l.721,1.444.529,1.057.515,1.026a6.922,6.922,0,0,0,.627.994l1.148,1.465a2.686,2.686,0,0,0,.908.7l.891.376a4.347,4.347,0,0,1,.99.618l.777.68a4.655,4.655,0,0,0,.984.628l1.734.771c.3.133.79.333,1.095.448l.56.21c.3.113.795.32,1.09.454l.281.131c.3.137.765.384,1.044.552l1.071.643a3.548,3.548,0,0,1,.857.779l.447.611c.192.262.493.7.669.974l.3.464c.175.275.461.723.637,1l.095.149a5.049,5.049,0,0,0,.76.891l.886.781a1.869,1.869,0,0,1,.527.975l.249,1.749c.046.321.119.848.164,1.17l.256,1.851a9.055,9.055,0,0,1,.063,1.175L434.438,190c-.009.323-.039.855-.065,1.178l-.112,1.323a6.231,6.231,0,0,1-.228,1.152l-.474,1.48a8.393,8.393,0,0,1-.452,1.088l-1.124,2.179a3.6,3.6,0,0,0-.328,1.113l-.2,2.054a7.133,7.133,0,0,0,0,1.175l.192,1.848a4.294,4.294,0,0,0,.3,1.123l.552,1.218a2.221,2.221,0,0,1,.142,1.119l-.107.608a3.817,3.817,0,0,1-.407,1.09l-.016.027a1.507,1.507,0,0,0-.128,1.07l.169.541c.1.31.234.822.306,1.139l.26,1.141a6.323,6.323,0,0,1,.131,1.165v.9a6.819,6.819,0,0,1-.123,1.168l-.377,1.763c-.07.317-.16.842-.2,1.163l-.26,1.955a3.308,3.308,0,0,0,.09,1.153l.5,1.68a1.913,1.913,0,0,0,.659.894l.58.386a11.289,11.289,0,0,0,1.021.592l1.027.515a7.061,7.061,0,0,1,.993.628l.53.415a2.239,2.239,0,0,1,.639.929l.588,1.894a3.328,3.328,0,0,0,.561,1.01l.582.67a9.726,9.726,0,0,0,.832.832l.67.582c.245.213.658.549.914.748l.418.321c.258.2.675.526.93.729l.639.512a3.366,3.366,0,0,1,.736.892l.493.934a3.507,3.507,0,0,1,.328,1.112l.1,1.114a5.937,5.937,0,0,0,.241,1.149l.251.755a7.011,7.011,0,0,0,.484,1.071l.444.753a1.9,1.9,0,0,0,.857.706l.346.124c.306.108.81.276,1.122.372l.225.068a6.31,6.31,0,0,1,1.075.473l1.479.863a3.815,3.815,0,0,0,1.095.392l1.438.23c.32.051.846.139,1.166.194l1.233.214c.32.055.846.122,1.172.144l1.634.122c.323.024.851.088,1.172.141l1.962.327a3.465,3.465,0,0,1,1.081.414l.149.1a.5.5,0,0,1,.238.682,1.293,1.293,0,0,1-.85.409l-.177.015a1.709,1.709,0,0,0-.986.481l-.246.271a3.848,3.848,0,0,0-.607.959,8.51,8.51,0,0,1-.512,1.027l-.016.029a1.083,1.083,0,0,0,0,1.014l.642,1.07a11.437,11.437,0,0,1,.541,1.049l.67,1.524a11.728,11.728,0,0,0,.541,1.047l.331.55a7.873,7.873,0,0,0,.7.949l.781.886a1.862,1.862,0,0,0,.975.526l.29.042a1.978,1.978,0,0,0,1.095-.216l.753-.443a1.137,1.137,0,0,1,1.024-.01l.638.358c.284.159.759.4,1.057.526l.583.256a4.013,4.013,0,0,1,.97.643l1.016.96a3.448,3.448,0,0,1,.668.945l.67,1.524a2.5,2.5,0,0,1,.16,1.127l-.052.392c-.044.321-.124.847-.18,1.167l-.108.607a4.379,4.379,0,0,1-.383,1.1l-.169.315a11.752,11.752,0,0,0-.493,1.071l-.1.253a2.56,2.56,0,0,0-.118,1.134l.23,1.438a3.62,3.62,0,0,1-.044,1.158l-.248,1.039a2.287,2.287,0,0,1-.571.975l-.488.449a2.059,2.059,0,0,1-1.021.46l-.908.09a4.35,4.35,0,0,0-1.126.306l-.281.131a2.976,2.976,0,0,0-.906.71l-.1.118a1.742,1.742,0,0,0-.368.878,1.339,1.339,0,0,0,.438.812l.164.148a1.788,1.788,0,0,0,1.03.4h1.529a6.831,6.831,0,0,0,1.168-.124l.3-.065c.317-.068.795-.567.694.455l.081.4a8.16,8.16,0,0,0,.328,1.131l.1.253a.5.5,0,0,1-.362.687l-.623.147a3.737,3.737,0,0,0-1.061.47l-.382.265a8.054,8.054,0,0,0-.9.754l-.311.312a10.539,10.539,0,0,1-.891.772l-.3.229a1.868,1.868,0,0,0-.606.929l-.047.2c-.072.316-.17.838-.216,1.16l-.041.289a9.648,9.648,0,0,0-.083,1.158v1.337a.547.547,0,0,0,.59.551l.384-.025a1.13,1.13,0,0,1,.917.453l.386.58a1.088,1.088,0,0,0,.9.439.8.8,0,0,1,.775.5l.012.036c.112.3.321.789.463,1.076s.378.709.521.938a1.812,1.812,0,0,0,.818.613l.655.234c.307.106.488.359.4.56a2.558,2.558,0,0,1-.573.729,2.2,2.2,0,0,1-1,.438l-.5.062a.628.628,0,0,0-.586.544,1.838,1.838,0,0,0,.361.935l.321.419a2.94,2.94,0,0,1,.465.937.52.52,0,0,1-.478.572l-.609.107a1.2,1.2,0,0,0-.789.52.86.86,0,0,0,.183.858l.05.053a.492.492,0,0,1-.106.761l-.464.3a2.223,2.223,0,0,0-.724.863l-.068.162a1.97,1.97,0,0,0-.063,1.112l.091.323c.09.312.21.826.267,1.142a1.262,1.262,0,0,0,.47.781c.2.113.22.433.047.707l-.1.149a1.932,1.932,0,0,0-.244,1.085l.063.5a2.374,2.374,0,0,1-.136,1.056,1.329,1.329,0,0,0,.056,1l.2.4a4.53,4.53,0,0,1,.351,1.113l.138.915a4.246,4.246,0,0,1-.021,1.164l-.1.506a3.959,3.959,0,0,1-.413,1.087l-.642,1.071c-.168.28-.461.721-.654.983l-.447.611a6.464,6.464,0,0,1-.795.864l-.777.682a1.463,1.463,0,0,0-.444.963.806.806,0,0,1-.571.728l-1.153.315a2.642,2.642,0,0,0-.986.572l-.52.52a2.238,2.238,0,0,1-.835.522,1.312,1.312,0,0,1-.9-.235l-.073-.051a.638.638,0,0,0-.852.121l-.512.642a2.613,2.613,0,0,1-.892.669,4.655,4.655,0,0,1-1.109.259l-.072,0a1.937,1.937,0,0,0-.9.31,2.112,2.112,0,0,1-.9.338l-.392.052c-.321.044-.8.126-1.055.183a1.413,1.413,0,0,0-.767.614l-.133.23c-.163.28-.414.744-.559,1.03a4.213,4.213,0,0,0-.338,1.107l-.052.391a10.408,10.408,0,0,1-.234,1.157l0,.007a1.39,1.39,0,0,1-.7.8l-1.1.473a8.236,8.236,0,0,1-1.119.366l-.2.045a1.507,1.507,0,0,1-1.061-.205l-1.114-.781a1.428,1.428,0,0,1-.534-.928l-.006-.072a1.605,1.605,0,0,0-.506-.963l-.231-.189a2.549,2.549,0,0,1-.659-.93l-.014-.035a2.019,2.019,0,0,1-.1-.973c.058-.229.142-.68.188-1l.147-1.017a.851.851,0,0,0-.453-.835l-.491-.23a3.2,3.2,0,0,0-1.127-.25h-.485a3.9,3.9,0,0,1-1.144-.206l-.561-.21a1.909,1.909,0,0,1-.846-.721l-.248-.433a.579.579,0,0,0-.8-.209l-.55.331a1.1,1.1,0,0,1-1.016,0l-1.274-.753a1.078,1.078,0,0,0-1.011.011l-.664.417c-.276.173-.743.425-1.035.566l-.7.33a.611.611,0,0,1-.8-.277l-.1-.194a.472.472,0,0,0-.734-.169l-.832.637a.875.875,0,0,1-.957.025l-.693-.478a.813.813,0,0,0-.935.05l-1.292,1.107a4.11,4.11,0,0,0-.741.9l-.248.433a1.127,1.127,0,0,1-.883.514h-.9a2.992,2.992,0,0,1-1.118-.264l-.612-.306a.957.957,0,0,0-.974.122l-.67.582a.962.962,0,0,1-.975.123l-1.027-.514a3.877,3.877,0,0,0-1.116-.327l-.8-.085a5.59,5.59,0,0,0-1.172.026l-.915.138a1.941,1.941,0,0,1-1.091-.218l-1.592-.955a2.04,2.04,0,0,0-1.093-.238l-.7.078a1.446,1.446,0,0,0-.913.555l-.178.269a.536.536,0,0,1-.79.123l-.639-.514a.59.59,0,0,0-.828.095l-.831,1.052a.947.947,0,0,1-.678.413,2.156,2.156,0,0,1-.766-.432l-.343-.285a.773.773,0,0,0-.92-.016l-.943.734a1.7,1.7,0,0,1-1.055.3l-.909-.091a1.087,1.087,0,0,0-.914.433l-.178.267a.406.406,0,0,1-.7.03l-.512-.639a1.09,1.09,0,0,0-.949-.353l-.506.1a2.579,2.579,0,0,1-1.136-.093l-.037-.014a.388.388,0,0,0-.555.389v.277a.634.634,0,0,1-.521.643,3.269,3.269,0,0,1-1.083-.126l-.853-.27a3.353,3.353,0,0,1-1.01-.566l-.669-.58a.957.957,0,0,0-.975-.122l-.611.3a1.166,1.166,0,0,1-1.027-.053l-.149-.095a2.384,2.384,0,0,0-1.088-.317h-.486a2.532,2.532,0,0,1-1.1-.3l-.03-.017a1.252,1.252,0,0,0-1.042-.056l-.282.129a.413.413,0,0,1-.617-.337l-.255-1.852a.928.928,0,0,0-.656-.719l-.622-.147a.641.641,0,0,0-.748.429l-.07.225a2.051,2.051,0,0,1-.654.908l-.5.354a.981.981,0,0,1-.989.041l-1.07-.643a1.186,1.186,0,0,0-1.031-.034l-2.182,1.126c-.289.149-.745.418-1.015.6l-.581.386a2.612,2.612,0,0,1-.908.381.864.864,0,0,1-.715-.459l-.133-.229a.434.434,0,0,0-.715-.093l-.519.52a5.862,5.862,0,0,1-.836.678,2.355,2.355,0,0,1-1.008.274l-3.09.076c-.326.009-.857.031-1.18.05l-.593.035a1.792,1.792,0,0,0-1.006.453l-.415.413a1.753,1.753,0,0,1-1.009.445l-1.216.052a6.135,6.135,0,0,0-1.159.185l-1.467.41a4.885,4.885,0,0,0-1.067.476l-.149.1c-.274.173-.728.45-1.009.615l-.229.133c-.282.164-.753.408-1.049.544l-.071.031a2.219,2.219,0,0,0-.837.754l-.443.754a2.537,2.537,0,0,1-.817.792l-1.05.578a3.833,3.833,0,0,1-1.1.367l-.289.042a1.6,1.6,0,0,0-.932.562l-.663.917a1.634,1.634,0,0,0-.247,1.062l.015.086a2.3,2.3,0,0,1-.147,1.121l-.453,1.008a5.375,5.375,0,0,1-.617,1l-.189.233a1.626,1.626,0,0,0-.311,1.044l.187,1.744a1,1,0,0,1-.447.886l-2,1.174a6.668,6.668,0,0,0-.945.7l-1.631,1.5a2.234,2.234,0,0,0-.57.974l-.147.619a11.021,11.021,0,0,1-.345,1.128l-.414,1.085c-.114.3-.3.762-.418,1.02a4.528,4.528,0,0,1-.6.915l-.58.669a1.838,1.838,0,0,0-.388,1.039v.9a1.068,1.068,0,0,1-.524.863l-1.557.811c-.289.148-.765.386-1.056.526l-1.123.534a7.678,7.678,0,0,0-1.01.6l-.609.447a5.535,5.535,0,0,1-1.024.57l-.466.187a.79.79,0,0,0-.466.8l.042.29a1.473,1.473,0,0,0,.58.9l1.612,1.03a.316.316,0,0,1-.026.595l-.725.386a8,8,0,0,0-.989.642l-.53.415a1.988,1.988,0,0,1-1.054.366h-2.05a2.525,2.525,0,0,0-1.1.3l-.03.017a1.671,1.671,0,0,1-1.081.167l-1.457-.351c-.315-.075-.837-.179-1.158-.229l-.812-.128a1.236,1.236,0,0,0-.984.342l-.449.486a1.363,1.363,0,0,0-.3,1.017l.015.085a2.991,2.991,0,0,0,.445,1.061l.138.189a1.474,1.474,0,0,1,.211,1.052l-.146.622a2.554,2.554,0,0,0,.041,1.139l.168.539a3.5,3.5,0,0,1,.119,1.153l-.1,1.011a4.574,4.574,0,0,1-.289,1.132l-.159.373a1.747,1.747,0,0,0-.035,1.1l.124.346a2.211,2.211,0,0,1,.045,1.128l-.111.422a8.066,8.066,0,0,1-.31.935.916.916,0,0,0,.229.812l.481.561a5.2,5.2,0,0,1,.636.985l.332.7a4.624,4.624,0,0,1,.328,1.121l.052.391a3.3,3.3,0,0,0,.389,1.09l.213.348a9.693,9.693,0,0,1,.544,1.046l.471,1.1a5.291,5.291,0,0,0,.6,1l.1.121a2.6,2.6,0,0,0,.92.673l.25.1a1.423,1.423,0,0,1,.739.775l.251.753a6.288,6.288,0,0,1,.241.979,1.378,1.378,0,0,0,.527.765l.611.448a.664.664,0,0,1,.173.856l-.019.027a3.081,3.081,0,0,0-.356,1.082,4.547,4.547,0,0,1-.279,1.118l-.067.159a1.568,1.568,0,0,0,.016,1.083l.554,1.216a1.749,1.749,0,0,1,.058,1.1l-.148.442a1.34,1.34,0,0,0,.151,1.047l.265.382c.183.269.5.694.705.948l.1.119a1.309,1.309,0,0,1,.213,1.031l-.313,1.153a2.639,2.639,0,0,1-.572.986,1.183,1.183,0,0,0-.284.993l.046.2a2.368,2.368,0,0,1-.07,1.131l-.012.036a1.513,1.513,0,0,0,.077,1.075l.17.316a2.169,2.169,0,0,0,.809.782l.4.2a2.17,2.17,0,0,0,1.111.173l.187-.027a1.242,1.242,0,0,1,.986.343l.551.592a2.981,2.981,0,0,0,.954.641l.561.21a1.978,1.978,0,0,1,.858.715l.33.549a11.1,11.1,0,0,0,.669.971l.415.53a3.764,3.764,0,0,0,.874.762l.23.133c.281.164.726.454.989.646l.192.139a1.634,1.634,0,0,1,.566.932l.136.914a1.588,1.588,0,0,0,.571.924l.076.052a2.617,2.617,0,0,0,1.056.391,1.3,1.3,0,0,1,.878.559l.016.029a1.55,1.55,0,0,1,.142,1.075l-.091.323a1.7,1.7,0,0,1-.675.861l-.434.246a1.718,1.718,0,0,0-.683.86l-.285.952a6.309,6.309,0,0,0-.211,1.157l-.124,1.739a9.191,9.191,0,0,1-.175,1.164l-.361,1.559a11.407,11.407,0,0,0-.189,1.164l-.2,2.054a1.936,1.936,0,0,0,.27,1.08l.388.58c.179.27.464.719.631,1l.33.548c.167.279.433.739.593,1.022l.882,1.575a2.076,2.076,0,0,1,.211,1.1l-.16,1.226a2.006,2.006,0,0,0,.184,1.054,5.774,5.774,0,0,0,.66.9l.347.379a2.377,2.377,0,0,1,.505.957,3.877,3.877,0,0,0,.407,1.029l.331.549a2.8,2.8,0,0,1,.336,1.1l.039.7a2.627,2.627,0,0,0,.354,1.086l.5.779a6.872,6.872,0,0,0,.738.914l.312.311a6.783,6.783,0,0,1,.74.913l.917,1.407a3.119,3.119,0,0,1,.4,1.08l.256,1.852c.045.322.092.851.107,1.174l.05,1.009c.016.325-.159.4-.391.173l-.206-.208a1.776,1.776,0,0,1-.448-1.008l-.044-.8a10.333,10.333,0,0,0-.141-1.169l-.2-1.027a2.969,2.969,0,0,0-.471-1.049l-.636-.833c-.2-.259-.52-.68-.719-.938l-.321-.418c-.2-.257-.5-.693-.678-.968l-.619-.981c-.173-.275-.442-.731-.6-1.016l-.06-.111a3.731,3.731,0,0,0-.735-.9l-1.076-.907a1.068,1.068,0,0,1-.32-.957l.047-.2a6.239,6.239,0,0,0,.134-1.168v-.172a3.178,3.178,0,0,0-.251-1.127l-.228-.493a2.309,2.309,0,0,1-.167-1.118l.04-.29a1.4,1.4,0,0,0-.318-1.017l-.653-.7a6.688,6.688,0,0,0-.891-.765l-1.005-.687a3.693,3.693,0,0,1-.816-.825l-.386-.581a3.353,3.353,0,0,0-.826-.809l-1.608-1.032c-.275-.174-.241-.382.073-.461l.106-.026a.726.726,0,0,0,.572-.611,1.026,1.026,0,0,0-.513-.762l-1.163-.664a1.262,1.262,0,0,1-.562-.881l0-.075c-.027-.323-.206-.373-.4-.111l-.138.19a1.31,1.31,0,0,1-.938.478h-.07a.48.48,0,0,0-.489.582l.108.608a1.894,1.894,0,0,1-.107,1,.992.992,0,0,0,.1.884,2.045,2.045,0,0,1,.282,1.06l-.045.9a2.371,2.371,0,0,0,.269,1.1l.134.229a3.512,3.512,0,0,0,.611.771c.172.143.126.331-.1.418a1.393,1.393,0,0,1-.944-.109l-.2-.1a1.049,1.049,0,0,1-.527-.855V442.3a1.75,1.75,0,0,0-.4-1.024l-.55-.592a3,3,0,0,0-.957-.642l-1.394-.522a1.126,1.126,0,0,1-.658-.728.788.788,0,0,0-.693-.567l-1.531-.118a9.2,9.2,0,0,1-1.059-.148,3.843,3.843,0,0,1-.97-.418l-.664-.415a3.661,3.661,0,0,0-1.075-.418,1.246,1.246,0,0,0-.886.157.945.945,0,0,1-.858.035l-.679-.28a1.755,1.755,0,0,1-.755-.59.845.845,0,0,1,.154-.831l0,0a.847.847,0,0,0,.019-.948l-.356-.5a3.173,3.173,0,0,1-.448-1,.469.469,0,0,1,.418-.572c.286-.03.779-.053,1.095-.053a1.525,1.525,0,0,0,.973-.434l.45-.486a8.731,8.731,0,0,1,.863-.8l.531-.417a1.12,1.12,0,0,0,.374-.949l-.029-.188a1.326,1.326,0,0,0-.4-.791,2.178,2.178,0,0,0-.835-.26c-.285-.029-.544.088-.572.26a.616.616,0,0,0,.209.521.828.828,0,0,1,.26.573,1.481,1.481,0,0,1-.364.781,3.587,3.587,0,0,1-.729.626,1.581,1.581,0,0,1-.626.207c-.144,0-.413-.216-.6-.483l-.053-.075c-.185-.265-.456-.648-.6-.848a.707.707,0,0,1,.052-.781,2.724,2.724,0,0,0,.409-1l.014-.085a8.772,8.772,0,0,1,.254-1.052,2.244,2.244,0,0,1,.418-.73c.143-.142.025-.134-.262.02l-.519.276a.514.514,0,0,1-.731-.19,1.354,1.354,0,0,1-.051-.887c.086-.228-.052-.25-.306-.047l-.119.1a2.781,2.781,0,0,1-.929.474.936.936,0,0,1-.832-.363l0,0c-.2-.256-.5-.325-.675-.154a.756.756,0,0,0-.03.832l.06.109a1.085,1.085,0,0,0,.856.519,1.042,1.042,0,0,1,.833.469,4.106,4.106,0,0,1,.366.99,7.187,7.187,0,0,0,.311,1.041c.116.287.327.755.47,1.042a.879.879,0,0,1-.052.886c-.173.2-.489.563-.706.806l-.047.055c-.216.244-.44.183-.5-.132a2.269,2.269,0,0,0-.519-1l-3.55-3.636a1.944,1.944,0,0,0-1-.491l-.6-.071a.385.385,0,0,1-.325-.59.952.952,0,0,0-.129-.966l-1.411-1.611a4.99,4.99,0,0,0-.837-.741.656.656,0,0,1-.184-.823l.051-.1a.669.669,0,0,1,.664-.42.328.328,0,0,0,.433-.289c.02-.22.053-.611.072-.869s-.224-.422-.544-.361l-.361.068a4.3,4.3,0,0,1-1.165.029l-.351-.051c-.322-.047-.383-.257-.137-.469l.624-.535c.246-.21.182-.383-.142-.383H304.3a1.764,1.764,0,0,0-1.026.4.5.5,0,0,0,.017.777l.907.761a2.972,2.972,0,0,1,.634.743,3.277,3.277,0,0,1,.233.952l.041.488c.029.323-.118.384-.323.134l-.264-.321a1.853,1.853,0,0,0-.846-.563.419.419,0,0,1-.29-.58.988.988,0,0,0-.037-.8,1.255,1.255,0,0,0-.8-.394l-.709-.082a.682.682,0,0,1-.588-.658v-.919a5.546,5.546,0,0,0-.149-1.162l-.062-.233a.361.361,0,0,0-.616-.209l-.372.289a.8.8,0,0,0-.231.9l.908,2.1c.128.3.087.59-.092.65a.828.828,0,0,1-.714-.336l-.238-.27c-.214-.245-.576-.634-.806-.863l-.4-.4a.826.826,0,0,1-.128-.933l.073-.129a1.3,1.3,0,0,0,.146-.912c-.081-.22-.388-.292-.688-.163l-.076.034a.753.753,0,0,1-.879-.246l-.337-.481a1.189,1.189,0,0,1-.193-.918.742.742,0,0,0-.348-.761l-1.623-1.085a9.7,9.7,0,0,0-1.027-.578L292,411.833a4.052,4.052,0,0,0-1.123-.3l-1.213-.109a2.112,2.112,0,0,0-1.1.25l-.435.26a5.9,5.9,0,0,0-.924.723l-.034.034a1.542,1.542,0,0,0-.418.924,1.013,1.013,0,0,1-.521.785l-.044.024a1.416,1.416,0,0,1-1.067.05l-.287-.122c-.3-.126-.8-.3-1.111-.391l-.387-.111a.69.69,0,0,0-.8.381l-.188.435a.86.86,0,0,1-.818.488l-.347-.034a8.623,8.623,0,0,0-1.175-.012l-.777.058a11.643,11.643,0,0,1-1.179.014l-.269-.014a2.626,2.626,0,0,0-1.1.223,2.964,2.964,0,0,0-.861.728l-.16.214a1.945,1.945,0,0,0-.353.98c0,.277-.2.331-.447.118l-.775-.674a4.017,4.017,0,0,0-1-.6l-.781-.3c-.3-.117-.795-.32-1.093-.448l-1.09-.471c-.3-.129-.753-.351-1.013-.489s-.715-.357-1.015-.483l-.287-.121a2.36,2.36,0,0,0-1.126-.127l-.07.011a5.024,5.024,0,0,1-1.168.041l-.853-.091c-.323-.036-.847-.124-1.163-.2l-1.021-.24c-.317-.073-.838-.178-1.159-.23l-1.008-.169a3.438,3.438,0,0,0-1.156.047l-.012,0a5.368,5.368,0,0,0-1.09.43l-.271.149c-.284.159-.738.435-1.008.616l-.1.07a1.875,1.875,0,0,1-1.078.259l-.709-.082a1.032,1.032,0,0,0-.842.257,1.405,1.405,0,0,0-.169.912l.05.352a.991.991,0,0,1-.243.838.889.889,0,0,1-.851-.019l-1.2-.616a.381.381,0,0,1-.085-.665l.5-.443a.59.59,0,0,0,.114-.792,1.183,1.183,0,0,0-.915-.348l-.489.042a6.2,6.2,0,0,1-1.131-.021,1.473,1.473,0,0,0-1,.31l-.04.034c-.247.21-.346.138-.219-.162l.188-.434a.548.548,0,0,0-.167-.725c-.219-.1-.2-.359.037-.58s.17-.437-.151-.481l-.352-.051a.744.744,0,0,1-.612-.674l-.016-.34a1.737,1.737,0,0,1,.351-1.044l.761-.906a.725.725,0,0,1,.889-.152l.213.123a.6.6,0,0,0,.813-.205l.7-1.162a2.069,2.069,0,0,0,.241-1.093l-.092-.853a2.755,2.755,0,0,0-.4-1.072l-1.137-1.637c-.185-.269-.489-.705-.672-.973l-.274-.4a.6.6,0,0,1,.151-.826l.48-.336a1.211,1.211,0,0,0,.46-.929l-.025-.631a.426.426,0,0,1,.551-.455l.082.02a1,1,0,0,0,.937-.332l.29-.371a2.014,2.014,0,0,0,.362-1.057v-.2a2.254,2.254,0,0,0-.331-1.078l-.858-1.267a2.088,2.088,0,0,0-.889-.684l-.333-.117a.442.442,0,0,1-.234-.69l.873-1.33c.178-.271.46-.723.627-1l1.207-2.026a2.335,2.335,0,0,0,.276-1.1l-.022-.557a3.861,3.861,0,0,0-.255-1.134l-.554-1.3a5.525,5.525,0,0,0-.591-1.011l0,0a.928.928,0,0,1-.051-.971l.54-.878a1.52,1.52,0,0,1,.892-.611l.792-.147a2.1,2.1,0,0,0,.984-.541l.138-.148a1.314,1.314,0,0,0,.289-1.013l-.425-2.173c-.062-.318-.165-.84-.23-1.158L253.7,375a1.615,1.615,0,0,1,.216-1.066l.422-.619c.183-.267.106-.35-.174-.183l-1.161.7a3.2,3.2,0,0,1-1.093.367l-.129.016a5.039,5.039,0,0,1-1.169-.037l-1.734-.3a6.151,6.151,0,0,0-1.172-.067l-.05,0a1.641,1.641,0,0,1-.989-.291,2.367,2.367,0,0,0-.984-.412l-1.294-.19c-.321-.047-.851-.1-1.174-.121l-1.356-.077a3.466,3.466,0,0,1-1.118-.3l-.68-.342a1.227,1.227,0,0,0-1-.009.983.983,0,0,1-.947-.1l-1.219-.9a1.855,1.855,0,0,1-.613-.924l-.088-.371a1.335,1.335,0,0,0-.463-.756,1.164,1.164,0,0,1-.414-.765l-.042-.281c-.047-.32-.169-.33-.267-.021l-.22.687a2.195,2.195,0,0,0,0,1.124l.01.032a3.464,3.464,0,0,1,.117,1.153l-.026.271a.843.843,0,0,1-.639.7l-.724.139a9.947,9.947,0,0,1-1.169.134l-.775.026a2.9,2.9,0,0,0-1.1.316l-.5.284a1.325,1.325,0,0,1-.984.112,1.286,1.286,0,0,0-.869,0,2.04,2.04,0,0,1-.98.085L227,373a3.508,3.508,0,0,0-1.157.039l-.372.09a5.168,5.168,0,0,1-1.164.113l-.7-.026c-.325-.012-.72-.039-.879-.06a1.98,1.98,0,0,1-.743-.414l-1.341-1.124a.389.389,0,0,0-.657.174l-.315.847a1.422,1.422,0,0,1-.762.749l-.55.19c-.307.107-.807.289-1.112.4l-2.371.889c-.3.113-.8.295-1.111.4l-.55.19c-.307.108-.81.282-1.117.389l-.766.264a11.3,11.3,0,0,1-1.136.315l-.221.047a7.776,7.776,0,0,0-1.124.346l-.138.057a.856.856,0,0,0-.5.813l.042.49a1.841,1.841,0,0,1-.2.986,1.84,1.84,0,0,0-.254.833.956.956,0,0,1-.524.708l-.473.249a6.062,6.062,0,0,0-.97.66l-.194.169a1.935,1.935,0,0,0-.555.893,1.777,1.777,0,0,0,.167,1.03l.174.331a7.43,7.43,0,0,0,.643.984l.422.526c.2.254.547.658.764.9l.514.571a6.628,6.628,0,0,0,.874.785l1.939,1.407a1.115,1.115,0,0,1,.409.935l-.15,1.287a2.338,2.338,0,0,0,.2,1.116l.123.246a10.169,10.169,0,0,0,.6,1.018l.42.617a.676.676,0,0,1-.117.872l-.549.465a7.606,7.606,0,0,0-.821.842l-1.07,1.326a2.617,2.617,0,0,0-.46,1.044l-.111.716c-.049.321-.1.851-.107,1.175l-.036,1.208a2.849,2.849,0,0,1-.308,1.1l-.361.638c-.159.282-.414.75-.565,1.037L206.554,407a8.374,8.374,0,0,0-.456,1.085l-.5,1.556a5.277,5.277,0,0,0-.214,1.153l-.155,3.021a9.053,9.053,0,0,0,.031,1.177l.092.853c.035.323.09.852.122,1.175l.1,1a3.832,3.832,0,0,0,.323,1.116l.123.248a2.013,2.013,0,0,1,.149,1.107l-.132.653c-.063.318-.139.843-.169,1.167l-.037.418a2.525,2.525,0,0,0,.205,1.119l.86,1.761a11.354,11.354,0,0,1,.445,1.092l.133.4a2.726,2.726,0,0,1,.081,1.142l-.078.43a4.6,4.6,0,0,1-.382,1.1l-.677,1.275a2.477,2.477,0,0,0-.245,1.112l.006.124a1.63,1.63,0,0,0,.475.98l.346.3a2.584,2.584,0,0,1,.624.933,3.52,3.52,0,0,0,.47.906.748.748,0,0,1-.056.843l-.249.345c-.19.264-.509.692-.7.95l-.66.869a3.3,3.3,0,0,0-.494,1.046l-.019.082a5.694,5.694,0,0,0-.136,1.082,1.54,1.54,0,0,1-.417.924l-.9.9c-.23.229-.608.6-.84.831l-2.416,2.36a5.4,5.4,0,0,0-.723.923l-.556.938a11.447,11.447,0,0,0-.537,1.051l-.689,1.595a3.42,3.42,0,0,0-.234,1.134v1.064a3.316,3.316,0,0,0,.216,1.1.817.817,0,0,1-.108.833,1.335,1.335,0,0,0-.284.915l.06.85a.791.791,0,0,1-.429.77.52.52,0,0,0-.228.72l.167.373c.134.295-.019.489-.337.429a1.4,1.4,0,0,0-1.027.275l-.623.535a5.157,5.157,0,0,0-.777.877l-.938,1.407c-.18.27-.461.723-.623,1l-2.669,4.627c-.162.281-.423.745-.58,1.029l-.59,1.066a2.28,2.28,0,0,0-.231,1.106l.039.417a2.281,2.281,0,0,1-.233,1.106l-.588,1.067a3.008,3.008,0,0,0-.312,1.107l-.016.34a2.394,2.394,0,0,1-.371,1.073l-.187.266a2.917,2.917,0,0,0-.414.81,2.416,2.416,0,0,1-.448.78l-.624.755a2.283,2.283,0,0,0-.433,1.045l-.1,1.068a4.1,4.1,0,0,0,.086,1.162l.075.3a7.564,7.564,0,0,0,.392,1.108l.445.958a2.713,2.713,0,0,1,.25.9,1.571,1.571,0,0,1-.363.8c-.2.239-.428.206-.507-.072a.738.738,0,0,0-.734-.474l-.126.006a1.963,1.963,0,0,0-1.029.429l-.57.512a3.321,3.321,0,0,0-.679.934l-.389.877a3.086,3.086,0,0,0-.223,1.129l.037,1.356a2.336,2.336,0,0,0,.163.842c.08.141.285.481.455.758l.32.516a1.488,1.488,0,0,1,.137,1.067l-.23.754a10.246,10.246,0,0,1-.425,1.1l-.007.015a2.779,2.779,0,0,0-.211,1.126l.07,1.066a2.156,2.156,0,0,0,.409,1.049l.488.6a.713.713,0,0,1,.046.858,4.864,4.864,0,0,0-.563.94l-.032.076c-.131.3-.367.311-.527.027l-.361-.638a.341.341,0,0,0-.626-.027l-.127.187a.771.771,0,0,1-.881.262l-.139-.058a.463.463,0,0,0-.656.356,6.554,6.554,0,0,0-.088,1.168l.035,1.065a4.166,4.166,0,0,1-.162,1.154l-.149.466a2.89,2.89,0,0,1-.6.981l-.469.469a4.674,4.674,0,0,0-.692.942l-.249.474a2.536,2.536,0,0,1-.637.776.772.772,0,0,0-.183.816l.149.469a.407.407,0,0,1-.412.562h-.7a1.47,1.47,0,0,0-.975.448l-.1.119c-.21.246-.572.636-.8.866l-.179.178a4.679,4.679,0,0,0-.692.939l-.175.331a4.522,4.522,0,0,0-.377,1.106l-.087.5a6.71,6.71,0,0,0-.075,1.172l.02.414a1.075,1.075,0,0,1-.445.878,1.035,1.035,0,0,1-.9.072.487.487,0,0,0-.652.255.546.546,0,0,0,.323.707l.583.254a.307.307,0,0,1,.063.58l-.347.251a1.74,1.74,0,0,0-.595.924l-.058.291a1.131,1.131,0,0,0,.33.966l.775.674a9.573,9.573,0,0,1,.83.836l.1.117a1.392,1.392,0,0,1,.272,1.03l-.281,1.447a.317.317,0,0,1-.563.2l-.041-.032a.655.655,0,0,0-.868.036l-.4.4a.412.412,0,0,1-.694-.1l-.1-.189a1.9,1.9,0,0,0-.823-.746l-.138-.057a1.2,1.2,0,0,0-.872-.042,1.6,1.6,0,0,1-.906.063l-.29-.057a.705.705,0,0,0-.761.282,1.1,1.1,0,0,0,.036.833,2.49,2.49,0,0,1,.193,1.024l-.021.486a1.66,1.66,0,0,0,.368,1.03l1.095,1.221a1.746,1.746,0,0,0,.866.511.7.7,0,0,1,.5.663l.012.269a.576.576,0,0,0,.619.546l.777-.058c.325-.022.428.169.23.427l-.224.294a1.355,1.355,0,0,1-.949.469h-.7a1.031,1.031,0,0,0-.81.362,2.734,2.734,0,0,0-.289.76,3.369,3.369,0,0,1-.378.9l-1.055,1.741a2.511,2.511,0,0,0-.306,1.1v1.644a2.008,2.008,0,0,0,.326,1.026,1.327,1.327,0,0,0,.833.47.6.6,0,0,1,.506.628v.555a.732.732,0,0,1-.581.694l-.068.012a.969.969,0,0,0-.716.677l-.02.082a3.092,3.092,0,0,0-.006,1.152l.178.8c.071.317.185.837.256,1.153l.034.149a1.954,1.954,0,0,1-.136,1.107l-.051.1a1.329,1.329,0,0,0,0,1.055l.341.683a.908.908,0,0,1-.144.958l-.561.59a1.715,1.715,0,0,0-.408,1.021v.266c0,.327.017.857.037,1.182l.071,1.138a4.9,4.9,0,0,0,.243,1.146l.53,1.425a6.776,6.776,0,0,1,.292,1.139l.264,1.8a1.784,1.784,0,0,0,.537.964l.906.761a1.447,1.447,0,0,1,.453.97v1.138a2.845,2.845,0,0,0,.275,1.115l.973,1.85a9.78,9.78,0,0,1,.469,1.081l.117.333a4.15,4.15,0,0,0,.562,1.021l.932,1.174a11.69,11.69,0,0,0,.785.881l.613.613c.229.229.32.531.2.672a.772.772,0,0,1-.688.144,1.22,1.22,0,0,0-.92.277l-.116.1c-.248.213-.629.581-.85.818l-.067.075c-.221.239-.516.532-.654.651a.668.668,0,0,1-.616.073c-.2-.08-.4.117-.45.438l-.042.282a6.621,6.621,0,0,0-.051,1.163,2.239,2.239,0,0,0,.253.906,2.17,2.17,0,0,1,.246.917l.015.34a1.889,1.889,0,0,0,.432,1.021l.208.221c.224.241.517.531.657.651a1.375,1.375,0,0,0,.761.219.846.846,0,0,0,.688-.327c.1-.179.377-.163.616.035a1.39,1.39,0,0,0,.942.292.893.893,0,0,1,.725.18,1.119,1.119,0,0,0,.8.218,1.166,1.166,0,0,1,.92.445l.188.265a.55.55,0,0,0,.8.114l.163-.129a1.119,1.119,0,0,1,1.008-.147l.139.06a5.256,5.256,0,0,0,1.126.3,2.152,2.152,0,0,0,1.1-.205l.986-.53a2.093,2.093,0,0,0,.738-.675,3.347,3.347,0,0,0,.29-.978,2.369,2.369,0,0,1,.453-1.034l.4-.473a1.112,1.112,0,0,1,.78-.414,1.794,1.794,0,0,1,.832.433,1.605,1.605,0,0,0,1.025.366l1.355-.077a1.606,1.606,0,0,0,.976-.48l.6-.7a1.186,1.186,0,0,1,.969-.356l.209.036a1.012,1.012,0,0,0,.912-.4l.359-.537a.531.531,0,0,1,.789-.122l.526.419a.767.767,0,0,0,.919,0l.243-.2a.8.8,0,0,1,.933-.022l.425.313a.822.822,0,0,0,.94-.014l.086-.068a.569.569,0,0,1,.812.112l.1.133a.751.751,0,0,0,.884.228l.016-.009a.785.785,0,0,1,.9.215l.067.085a1.658,1.658,0,0,1,.3,1.051l-.007.058a1.091,1.091,0,0,0,.223.841,1.525,1.525,0,0,1,.353.84l.015.132a.768.768,0,0,0,.608.658.561.561,0,0,1,.455.657l-.259,1.728a3.283,3.283,0,0,0,.072,1.156l.188.672a3.372,3.372,0,0,0,.534,1.025l.555.682a2.073,2.073,0,0,1,.4,1.046l.1,2.368a1.661,1.661,0,0,0,.387.954.672.672,0,0,1,.012.838l-.1.133a2.128,2.128,0,0,0-.348,1.067v1.209a10.014,10.014,0,0,0,.082,1.175l.271,1.947c.044.321.095.848.112,1.174l.085,1.644a3.656,3.656,0,0,0,.21,1.025,1.556,1.556,0,0,1,.036.906.916.916,0,0,0,.218.832,1.61,1.61,0,0,1,.378.955l.112,4.1a7.9,7.9,0,0,0,.137,1.17l.2.944a3.958,3.958,0,0,0,.433,1.08l.46.736a3.214,3.214,0,0,0,.806.825l1.549,1.016a3.55,3.55,0,0,1,.821.816l.358.539a10.683,10.683,0,0,1,.585,1.024l.357.746c.141.295.377.769.525,1.06l1.056,2.062a2.494,2.494,0,0,0,.77.837l1.677,1.042a.973.973,0,0,0,.985-.027l.265-.192a.433.433,0,0,0,.085-.7,1.158,1.158,0,0,1-.3-.945l.239-1.442a1.616,1.616,0,0,0-.25-1.06l-.679-.929a4.432,4.432,0,0,0-.83-.821l-.052-.036c-.265-.19-.333-.475-.155-.634a.636.636,0,0,1,.781.088l1.265,1.054a5.17,5.17,0,0,1,.79.866l1.429,2.07a5.757,5.757,0,0,1,.54,1.039l1.328,3.6a6.957,6.957,0,0,1,.295,1.136l.231,1.5c.049.321.109.849.134,1.172l.235,3.047a11,11,0,0,0,.169,1.168l1.051,4.854c.07.321.187.837.262,1.154l2.244,9.416c.075.313.2.831.271,1.149l.789,3.4a6.648,6.648,0,0,1,.142,1.163l.063,4.184c0,.322.01.845.01,1.158a1.029,1.029,0,0,0,.527.832l.081.04a1.312,1.312,0,0,1,.626.848l.294,1.759c.053.321.158.841.231,1.159l.626,2.667c.073.317.21.83.3,1.142l.392,1.307a9.054,9.054,0,0,0,.427,1.1l1.439,3c.141.294.361.776.491,1.072l.663,1.52a4.525,4.525,0,0,0,.629.98l1.165,1.313c.216.241.576.634.8.867l.81.852a1.288,1.288,0,0,1,.368.835,1.457,1.457,0,0,1-.448.771,1.133,1.133,0,0,1-.973.2l-.248-.073a2.1,2.1,0,0,1-.924-.638l-.586-.766a1.865,1.865,0,0,0-.764-.59,1.459,1.459,0,0,1-.687-.643l-.007-.016a1.154,1.154,0,0,0-.871-.541l-1.012-.037a1.949,1.949,0,0,1-.915-.265.56.56,0,0,1,0-.733,1.643,1.643,0,0,0,.209-1.067l-.093-.466c-.063-.317-.151-.842-.189-1.166l-.341-2.728a2.66,2.66,0,0,0-.317-.952,1.954,1.954,0,0,1-.231-.955l.055-2.394a4.812,4.812,0,0,0-.146-1.159l-.251-.893a3.839,3.839,0,0,0-.509-1.045l-.437-.592a2.063,2.063,0,0,0-.917-.646l-.494-.149a2.548,2.548,0,0,0-1.138-.025l-.154.037a1.564,1.564,0,0,0-.859.659l-.239.43a4.191,4.191,0,0,0-.368.883.686.686,0,0,1-.529.447.881.881,0,0,1-.771-.407,1.9,1.9,0,0,1-.285-1.015,3.654,3.654,0,0,1,.295-1.063l.3-.639a.822.822,0,0,1,.7-.491,1.136,1.136,0,0,0,.823-.415l.386-.47a1.241,1.241,0,0,0,.209-1.021l-.073-.249a9.323,9.323,0,0,1-.246-1.151l-.327-2.407a9.182,9.182,0,0,1-.08-1.031,3.817,3.817,0,0,0-.194-1.006l-.262-.753a1.879,1.879,0,0,0-.7-.857l-.363-.211a1.284,1.284,0,0,0-1.05-.062l-.382.169a9.041,9.041,0,0,0-.866.445,1.47,1.47,0,0,1-.853.122.911.911,0,0,0-.813.323,3.184,3.184,0,0,1-.782.723l-.545.346a2.334,2.334,0,0,0-.749.849l-.07.147a2.884,2.884,0,0,0-.224,1.127l.111,2.556c.015.325.061.853.106,1.175l.085.62a6.265,6.265,0,0,0,.287,1.137l.316.845c.114.3.3.8.4,1.111l.262.754c.106.3.285.794.4,1.086a4.061,4.061,0,0,0,.587.976l.206.24a1.512,1.512,0,0,0,.831.489.644.644,0,0,1,.529.529c.045.267.133.746.2,1.066l.093.466a2.331,2.331,0,0,0,.534,1l.139.138a1.84,1.84,0,0,1,.458,1.009l0,.04a1.818,1.818,0,0,0,.457,1.005l.221.223c.23.23.621.591.869.8l.153.129a1.881,1.881,0,0,0,1.042.383h.2a2.085,2.085,0,0,1,1.065.353l.029.024a2.211,2.211,0,0,0,.92.393.764.764,0,0,1,.567.612,8.284,8.284,0,0,1,.151,1.158l.025.526a1.208,1.208,0,0,0,.542.883l.111.062a9.2,9.2,0,0,1,.878.577c.2.157.172.465-.066.687l-.274.253a1.49,1.49,0,0,0-.432.929.86.86,0,0,0,.447.733,1.29,1.29,0,0,1,.591.777l.119.478a1.374,1.374,0,0,0,.51.776,2.128,2.128,0,0,0,.954.175l.527-.026a.693.693,0,0,1,.693.554l.037.219a.4.4,0,0,0,.618.295l.43-.239a1.332,1.332,0,0,1,1.056-.044l.547.245a.88.88,0,0,0,.942-.19l1.307-1.408a4.811,4.811,0,0,1,.889-.719,1.153,1.153,0,0,1,1.009,0l.177.091a4.139,4.139,0,0,1,.919.717l.83.914a8.256,8.256,0,0,1,.715.934l1.8,2.822c.174.274.475.713.667.975l1.09,1.486c.192.26.519.68.728.928l.868,1.044a3.818,3.818,0,0,0,.894.74l.43.238a1.789,1.789,0,0,0,1.092.158l.634-.143a1.829,1.829,0,0,1,1.1.147l1.072.578c.286.153.739.428,1.008.615l1.87,1.28c.267.185.718.468,1,.629l.521.3c.28.162.733.439,1,.619l1.368.9a4.454,4.454,0,0,0,1.066.476l.077.02a1.329,1.329,0,0,0,1.035-.213l.208-.163a1.839,1.839,0,0,1,1.056-.338l.607.027c.323.015.856.011,1.18-.007l1.582-.093c.325-.019.856-.025,1.18-.014l1.175.041a2.081,2.081,0,0,0,1.073-.322l.415-.294c.266-.187.709-.481.983-.654l.3-.185a.916.916,0,0,1,.948.012c.245.179.669.469.944.646l.143.09a1.113,1.113,0,0,0,1.017.042l.177-.094a1.14,1.14,0,0,1,1.025.034l.05.03c.276.17.576.127.665-.1a.867.867,0,0,0-.255-.822l-.465-.466a7.684,7.684,0,0,0-.9-.753l-.085-.06a5.044,5.044,0,0,0-1.046-.524l-.83-.275a3.049,3.049,0,0,0-1.146-.111l-.047.006c-.322.044-.352-.047-.067-.2l.75-.408a2.06,2.06,0,0,1,1.1-.2l.455.068a2.708,2.708,0,0,1,1.054.448l.766.581a10.978,10.978,0,0,0,.984.654l1.088.628a5,5,0,0,0,1.085.438l.154.04c.316.08.83.211,1.144.3l.97.262a8.821,8.821,0,0,1,1.107.4l1.933.888c.3.137.776.363,1.071.5l.8.384a2.2,2.2,0,0,1,.82.771l1.374,2.46c.159.285.423.746.588,1.027l1.754,2.964c.165.277.453.725.638.991l.79,1.142c.184.269.5.7.7.953l.41.53a5.993,5.993,0,0,1,.607,1.006l.652,1.44a6.967,6.967,0,0,0,.588,1.019l.771,1.071c.19.265.506.69.7.95l1.075,1.416c.2.259.521.678.723.935l.486.614a2.027,2.027,0,0,0,.939.607l1.779.445a3.259,3.259,0,0,1,1.035.511l.3.239a7.19,7.19,0,0,1,.843.82l1.024,1.21a9.394,9.394,0,0,0,.828.837l.894.771a9.238,9.238,0,0,1,.828.838l.539.641a4.486,4.486,0,0,0,.881.764l2.248,1.4c.276.173.733.445,1.015.607l.68.391a1.016,1.016,0,0,1,.466.881l-.151,1.828a5.5,5.5,0,0,0,.056,1.171l.2,1.113a2.835,2.835,0,0,1-.075,1.143l-.131.418a2.765,2.765,0,0,1-.6.973l-1.015.969a6.762,6.762,0,0,1-.93.72l-1.758,1.083a4.194,4.194,0,0,0-.872.772l-1.536,1.923a4.32,4.32,0,0,0-.573,1.015l-.159.434a2.786,2.786,0,0,0-.122,1.139l.321,2.243a1.916,1.916,0,0,1-.225,1.09l-.031.05a2.042,2.042,0,0,1-.8.705,5.151,5.151,0,0,1-1.075.281l-.047.008a1.067,1.067,0,0,0-.785.636l-.332.917a1.7,1.7,0,0,1-.728.821l-.244.122a1.551,1.551,0,0,0-.693.831l-.238.813a.96.96,0,0,1-.654.652,2.157,2.157,0,0,1-1.026-.159l-.383-.17a2.039,2.039,0,0,1-.821-.76l-.576-1.073a.682.682,0,0,0-.831-.3l-.769.3a2.871,2.871,0,0,0-.937.662l-.282.326a.453.453,0,0,1-.738-.029l-1.575-2.137a1.986,1.986,0,0,1-.33-1.066l.04-1.175a.569.569,0,0,0-.57-.592h-.2a1.233,1.233,0,0,1-.918-.49l-.481-.723a2.169,2.169,0,0,0-.882-.7l-.842-.316a1.792,1.792,0,0,0-1.1.009l-.769.3a5.447,5.447,0,0,0-1.026.562l-.833.6a3.656,3.656,0,0,1-1.051.491l-.8.2a5.921,5.921,0,0,1-1.164.142h-.93a1.811,1.811,0,0,0-1.032.394l-2.123,1.893a1.724,1.724,0,0,1-1.032.381l-2.07-.052a1.08,1.08,0,0,0-.878.5l-.561,1a3.249,3.249,0,0,0-.338,1.1l-.143,1.668a1.962,1.962,0,0,1-.458,1.017l-.81.85c-.225.236-.6.608-.84.832l-.438.41a3.443,3.443,0,0,1-.986.607l-1.57.571a.888.888,0,0,1-.929-.259l-.311-.382a7.606,7.606,0,0,1-.654-.978l-.493-.913a3.157,3.157,0,0,0-.759-.866l-.832-.6a2.128,2.128,0,0,0-1.07-.348h-.687a.906.906,0,0,1-.792-.555l-.248-.675a3.361,3.361,0,0,0-.608-.985l-.73-.767a.805.805,0,0,1-.093-.929l1-1.6a9.321,9.321,0,0,0,.546-1.042l.266-.622a10.83,10.83,0,0,1,.536-1.05l.367-.611a1.233,1.233,0,0,1,.894-.535l.526-.026a2.237,2.237,0,0,0,1.036-.351,1.178,1.178,0,0,0,.415-.917l-.016-.284a2,2,0,0,1,.307-1.072l.294-.414a1.218,1.218,0,0,0,.122-1.032l-.374-.934a6.755,6.755,0,0,1-.3-.955,2.132,2.132,0,0,1,.127-.959l.56-1.494a.849.849,0,0,0-.261-.913l-.852-.659a4.339,4.339,0,0,1-.792-.848.981.981,0,0,1-.007-.986l.5-.791a1.541,1.541,0,0,1,.9-.6l.218-.04a.59.59,0,0,0,.478-.683l-.361-2.006a.621.621,0,0,0-.69-.5l-1.754.243a5.5,5.5,0,0,1-1.172.012l-.208-.024a1.81,1.81,0,0,1-.981-.508l-.673-.746a.6.6,0,0,0-.84-.051l-.979.848c-.244.213-.609.534-.811.714a1.133,1.133,0,0,1-.935.17l-2.19-.587a1.014,1.014,0,0,0-.937.254c-.2.224-.466.16-.59-.142l-.282-.694a2.1,2.1,0,0,1-.081-1.118l.282-1.131a1.627,1.627,0,0,0-.167-1.075l-.68-1.106a2.342,2.342,0,0,1-.295-1.1l.05-1.986a1.4,1.4,0,0,0-.434-.973l-.725-.616a2,2,0,0,0-1.041-.406l-.932-.034a.646.646,0,0,1-.607-.614l-.046-1.5c-.01-.325-.243-.445-.515-.27l-2.419,1.554a6.755,6.755,0,0,0-.914.738l-.058.058a.982.982,0,0,1-.966.2l-3.858-1.518a4.259,4.259,0,0,0-1.138-.244l-.526-.025a1.436,1.436,0,0,1-.949-.5l-.828-1.09a1.345,1.345,0,0,0-.948-.473h-.769a2.471,2.471,0,0,0-1.093.312l-.05.029a1,1,0,0,1-.991-.021l-1.055-.718a2.013,2.013,0,0,0-.935-.331,1.318,1.318,0,0,1-.833-.449l-.771-.893c-.211-.246-.566-.642-.786-.883l-.095-.1a1.773,1.773,0,0,1-.4-1.027v-1.174a2.627,2.627,0,0,0-.295-1.1l-.3-.52c-.164-.282-.409-.754-.549-1.047l-.226-.474a.968.968,0,0,0-.843-.509l-.688.03a1.11,1.11,0,0,0-.855.555l-.122.243a.371.371,0,0,1-.654.086l-1.006-1.146a.5.5,0,0,0-.775.006l-.206.24a1.969,1.969,0,0,0-.407,1.04l-.037,1.092a3.984,3.984,0,0,1-.248,1.138l-.118.289a1.568,1.568,0,0,0,.017,1.083l.652,1.444a.853.853,0,0,1-.2.929l-.581.516a1.4,1.4,0,0,0-.41.981l.1,2.07a1.579,1.579,0,0,1-.381,1.017l-1.374,1.422a.348.348,0,0,1-.623-.123l-.142-.362c-.117-.3-.323-.77-.458-1.037a1.188,1.188,0,0,0-.812-.568.4.4,0,0,1-.3-.611l.366-.731a1.342,1.342,0,0,0,.1-.934.67.67,0,0,0-.649-.366,1.368,1.368,0,0,0-.838.518l-.437.591a.463.463,0,0,1-.746.036l-2.054-2.29a2.661,2.661,0,0,1-.525-1.016l-.146-.633a.5.5,0,0,0-.683-.368l-.194.071c-.3.115-.5-.052-.428-.371l.154-.714a1.887,1.887,0,0,0-.148-1.1l-.346-.662a.775.775,0,0,0-.8-.4.563.563,0,0,1-.656-.455l-.07-.308c-.071-.317-.308-.381-.529-.144l-.173.189c-.221.239-.572.638-.782.886l-.131.153a.523.523,0,0,1-.706.169.982.982,0,0,0-.882-.087l-.025.007a.389.389,0,0,1-.556-.389v-.526c0-.323.029-.854.065-1.178l.032-.289a5.626,5.626,0,0,0-.016-1.158c-.045-.312.153-.439.438-.285l.912.494c.285.154.464.021.4-.3l-.082-.387a2.578,2.578,0,0,0-.516-1.019l-.593-.664a1.026,1.026,0,0,0-.96-.274l-.248.073a.871.871,0,0,1-.892-.28,4.84,4.84,0,0,1-.524-1l-.009-.027a2.322,2.322,0,0,0-.606-.881,4.577,4.577,0,0,0-.952-.547l-.694-.286c-.3-.123-.8-.3-1.111-.4l-.173-.055a4.608,4.608,0,0,0-1.132-.175.863.863,0,0,1-.756-.56l-.032-.1a5.807,5.807,0,0,0-.43-.968,1.26,1.26,0,0,1-.163-.772,3.738,3.738,0,0,0,.041-.893,5.924,5.924,0,0,1,0-.894c.022-.2.3-.315.619-.249l.061.011a.406.406,0,0,0,.512-.471l-.03-.289a.678.678,0,0,0-.657-.586h-.118a.668.668,0,0,1-.673-.448,1.882,1.882,0,0,1,.183-.977l.2-.4a1.042,1.042,0,0,0-.061-.975.928.928,0,0,1-.017-.951l.279-.454a2.311,2.311,0,0,1,.795-.748,1.317,1.317,0,0,0,.6-.825l.012-.058a2.277,2.277,0,0,1,.534-1l.057-.058a11.21,11.21,0,0,0,.779-.886l.092-.119c.2-.259.159-.541-.087-.633a.826.826,0,0,0-.812.246,1.629,1.629,0,0,1-.955.445l-.04,0a1.637,1.637,0,0,0-.914.364.568.568,0,0,1-.651.122,1.247,1.247,0,0,1-.405-.789l-.164-1.185c-.045-.322-.281-.476-.526-.342a3.845,3.845,0,0,1-.813.326.942.942,0,0,0-.526.648h0a.336.336,0,0,1-.6.168l-.187-.173a.893.893,0,0,0-.923-.158.52.52,0,0,1-.711-.3l-.119-.287c-.123-.3-.325-.795-.448-1.093l-.121-.287a5.642,5.642,0,0,0-.576-1.021l-.922-1.246a1.245,1.245,0,0,1-.155-1.03l.095-.267a1.391,1.391,0,0,1,.754-.751l.51-.18a1.68,1.68,0,0,0,.821-.723l1.26-2.519a2.39,2.39,0,0,0,.224-1.056c-.022-.291-.26-.377-.527-.193l-.326.225a1.714,1.714,0,0,0-.613.912l-.155.713a1.593,1.593,0,0,1-.628.888l-.7.434a.912.912,0,0,1-.827.109,1.3,1.3,0,0,1-.422-.787l-.048-.3a4.785,4.785,0,0,1-.025-1.17l.1-.777a1.668,1.668,0,0,0-.169-.952c-.136-.2-.425-.168-.644.07l-.1.1c-.219.239-.473.509-.561.6a1.4,1.4,0,0,0-.163.753v1.5a4.363,4.363,0,0,1-.187,1.149l-.2.59a.5.5,0,0,1-.715.3l-.243-.123a8.2,8.2,0,0,0-1.057-.428,1.975,1.975,0,0,1-.872-.643l-.126-.177a.5.5,0,0,0-.749-.114.527.527,0,0,1-.771-.1l-1.059-1.346c-.2-.255-.516-.682-.7-.949l-.653-.933a.909.909,0,0,1-.1-.891,2.3,2.3,0,0,0,.245-1v-.037c0-.323.026-.856.058-1.178l.045-.449a2.183,2.183,0,0,0-.234-1.1l-.065-.111a10.314,10.314,0,0,1-.512-1.062l-.049-.123a.815.815,0,0,0-.806-.476l-.208.021c-.322.041-.429-.143-.238-.4l.2-.267a1.045,1.045,0,0,0,.077-1l-.511-.983a2.892,2.892,0,0,1-.272-1.115v-1.337a.418.418,0,0,0-.567-.424l-.248.073a1.239,1.239,0,0,1-1.017-.215l-.155-.132a.535.535,0,0,1-.032-.8l.546-.546a.413.413,0,0,0-.1-.7l-.175-.1a4.859,4.859,0,0,0-1.1-.388l-.546-.1a9.252,9.252,0,0,1-.945-.231,1.426,1.426,0,0,1-.631-.651l-.364-.731a1.856,1.856,0,0,0-.809-.756l-1.024-.435a1.252,1.252,0,0,1-.664-.807l-.167-.795c-.066-.316-.154-.313-.2.009l-.255,2a3.01,3.01,0,0,1-.361,1.032.96.96,0,0,1-.869.369l-.049-.007a4.305,4.305,0,0,1-1.031-.28,2,2,0,0,0-1.027-.087l-.06.014a.769.769,0,0,1-.812-.428l-.021-.052a4.38,4.38,0,0,1-.285-1.133l-.06-.689a5.777,5.777,0,0,1,.045-1.173l.051-.3a1.881,1.881,0,0,0-.208-1.088l-.123-.207a.821.821,0,0,1,.062-.912,1.47,1.47,0,0,1,.812-.448,1.232,1.232,0,0,0,.767-.536l.253-.391a1.438,1.438,0,0,0,.144-1.06l-.053-.172a1.21,1.21,0,0,1,.2-1.018l.055-.066a.885.885,0,0,0,.093-.942.376.376,0,0,0-.659-.034l-.386.471a.725.725,0,0,1-.741.292,2.175,2.175,0,0,1-.7-.648l-.624-.9a1.192,1.192,0,0,0-.927-.456l-.447.022a.881.881,0,0,1-.809-.519l-.211-.527a2.182,2.182,0,0,1-.082-1.123l.132-.555a1.031,1.031,0,0,0-.322-.95l-.382-.311c-.253-.2-.657-.55-.9-.769l-.02-.02a.627.627,0,0,0-.856.022l-.789.79a1.321,1.321,0,0,1-1,.325l-.376-.06a1.119,1.119,0,0,0-.949.357.367.367,0,0,1-.648-.073l-.41-.753a2.207,2.207,0,0,0-.811-.78l-.406-.2a.479.479,0,0,0-.7.3l-.148.491c-.095.31-.282.327-.422.031l-.147-.311a3.609,3.609,0,0,0-.687-.935l-.1-.1a1.427,1.427,0,0,1-.408-.989l.025-.526a7.973,7.973,0,0,1,.164-1.164l.055-.23c.075-.316.155-.711.183-.876a.5.5,0,0,0-.279-.464c-.179-.088-.236-.411-.128-.718l.1-.266a2.594,2.594,0,0,0,.08-1.139l-.095-.465c-.062-.318-.167-.838-.23-1.157l-.012-.061a2.777,2.777,0,0,0-.481-1.025.361.361,0,0,0-.643.072l-.095.175c-.153.287-.424.414-.6.277a.88.88,0,0,1-.2-.82l.155-.713a5.19,5.19,0,0,0,.09-1.168l-.011-.2a1.057,1.057,0,0,0-.4-.792,1.155,1.155,0,0,0-.893.04,2.955,2.955,0,0,0-.9.705l-.236.3a.737.737,0,0,1-.857.216,1.255,1.255,0,0,1-.583-.826l-.05-.3a3.52,3.52,0,0,1,.037-1.159l.055-.229c.073-.317.19-.779.257-1.024a1.078,1.078,0,0,1,.685-.622l.172-.056c.31-.093.729-.231.93-.3s.2-.284,0-.485a1.07,1.07,0,0,0-.894-.244c-.29.065-.693.175-.893.244a.919.919,0,0,1-.784-.3l-.139-.142a.338.338,0,0,0-.606.144l-.194.583a.837.837,0,0,1-.777.54l-.851-.034a1.713,1.713,0,0,0-.874.177,1.613,1.613,0,0,0-.447.693.774.774,0,0,1-.753.454l-.284-.019a1.747,1.747,0,0,1-.874-.272c-.155-.136-.323.017-.371.34l-.07.456a2.541,2.541,0,0,0,.035.95,2.778,2.778,0,0,1,.122.73c0,.2-.128.347-.285.325s-.3-.259-.325-.526-.041-.71-.041-.975a.951.951,0,0,0-.284-.693.71.71,0,0,0-.69.042,2.486,2.486,0,0,1-.853.285,1.886,1.886,0,0,0-.853.366c-.224.177-.243.415-.041.527a6.009,6.009,0,0,0,.852.363,1.187,1.187,0,0,1,.651.733l.163.57a4.417,4.417,0,0,1,.163.975.919.919,0,0,0,.325.649.505.505,0,0,1,.081.652c-.134.224-.391.626-.571.9L131,630.9a3.969,3.969,0,0,0-.464,1.07l-.133.555a3.616,3.616,0,0,1-.34.9c-.111.18-.383.132-.6-.107l-.173-.189a.5.5,0,0,0-.772.025l-.312.384a.551.551,0,0,1-.807.057l-.1-.093a2.865,2.865,0,0,1-.634-.955l-.009-.027c-.108-.306-.271-.7-.361-.881a.75.75,0,0,0-.69-.285,1.019,1.019,0,0,1-.842-.46l-.187-.3a1.108,1.108,0,0,0-.9-.466l-.122.01a1.5,1.5,0,0,1-1.006-.381l-.058-.057a1.581,1.581,0,0,1-.4-1.009l.049-1.744a3.58,3.58,0,0,0-.193-1.143l-.719-1.9a4.469,4.469,0,0,1-.239-1.141l-.022-.445a3.534,3.534,0,0,0-.282-1.126l-.957-2.02a3.932,3.932,0,0,1-.3-1.121l-.06-.692a7.611,7.611,0,0,0-.209-1.158l-.091-.325c-.086-.312-.233-.823-.325-1.136l-.072-.249a4.3,4.3,0,0,1-.143-1.157l.034-.769c.012-.325.143-.352.287-.062l.366.731a4.456,4.456,0,0,0,.682.947l.058.057c.23.231.565.544.743.7a.435.435,0,0,0,.611-.039.655.655,0,0,0,.081-.692,2.772,2.772,0,0,0-.684-.709l-.177-.126a2.737,2.737,0,0,1-.724-.83,1.139,1.139,0,0,1-.041-.894,2.073,2.073,0,0,0,.131-.994l-.016-.128a1.557,1.557,0,0,1,.3-1.04l.056-.067a2.2,2.2,0,0,0,.428-1.042l.063-.772a2.925,2.925,0,0,0-.175-1.136l-.119-.289a10.938,10.938,0,0,0-.517-1.057l-.065-.113a.457.457,0,0,1,.271-.69l.418-.131a1.159,1.159,0,0,0,.7-.755l.132-.556a6.011,6.011,0,0,0,.137-1.164V600.7a1.28,1.28,0,0,1,.286-.838.782.782,0,0,0,.112-.767.95.95,0,0,1,.267-.917l1.063-.948a.776.776,0,0,0,.154-.911l-.121-.219a.964.964,0,0,1,.076-.98l1.5-1.917a.646.646,0,0,1,.817-.189,1.123,1.123,0,0,0,.832.141.451.451,0,0,0,.174-.626.879.879,0,0,1,.218-.9l1.024-.985c.234-.226.163-.369-.158-.32l-.638.1a2.329,2.329,0,0,0-.932.368.714.714,0,0,1-.729.07,1.051,1.051,0,0,1-.413-.8l-.009-.139a1.452,1.452,0,0,1,.4-1l.178-.165a1.431,1.431,0,0,1,1.019-.323l.357.05a.74.74,0,0,0,.771-.479l.042-.132a1.019,1.019,0,0,0-.236-.97l-1.095-1.055a2.855,2.855,0,0,1-.613-.973l-.113-.335a5.866,5.866,0,0,0-.5-1.061l-.2-.322a1.736,1.736,0,0,1-.205-1.08l.057-.3c.06-.321.3-.4.542-.179l.178.169a.6.6,0,0,0,.84-.025l.643-.674a.543.543,0,0,0-.047-.8l-.269-.221a.656.656,0,0,1-.122-.862l.1-.137a3.58,3.58,0,0,0,.455-1.066l.034-.163a4.3,4.3,0,0,1,.424-1.087l.509-.86a4.506,4.506,0,0,0,.405-.892,1.585,1.585,0,0,0-.1-.866.811.811,0,0,1,.035-.765,1.412,1.412,0,0,0,.244-.8,1.352,1.352,0,0,1,.455-.9l.27-.218a1.962,1.962,0,0,0,.572-.957l.045-.229a4.024,4.024,0,0,1,.42-1.087l.017-.03a1.773,1.773,0,0,0,.188-1.085l-.046-.231a1.557,1.557,0,0,1,.228-1.06l.006-.011a2.686,2.686,0,0,0,.41-1.068l.077-.7c.036-.321.267-.476.517-.342a2.134,2.134,0,0,1,.729.764c.153.285.434.505.626.486a1.067,1.067,0,0,0,.624-.556,1.847,1.847,0,0,1,.828-.735l.15-.06c.3-.117.549-.384.549-.6s-.265-.381-.59-.381h-.417a3.652,3.652,0,0,0-.9.106c-.173.056-.383-.152-.47-.465l-.032-.113a1.105,1.105,0,0,0-.575-.708.722.722,0,0,1-.417-.659,1.281,1.281,0,0,1,.347-.836.467.467,0,0,1,.626-.035.58.58,0,0,0,.591.138,1.452,1.452,0,0,0,.539-.683l.036-.091a1.264,1.264,0,0,0-.1-1.04l-.259-.4a.506.506,0,0,1,.129-.74.5.5,0,0,0,.131-.738l-.123-.189c-.177-.272-.078-.386.218-.253l.452.208a2.76,2.76,0,0,0,.746.243,1.388,1.388,0,0,0,.618-.424l.848-.884c.225-.236.269-.537.1-.669a.8.8,0,0,0-.8.032.935.935,0,0,1-.868.037.908.908,0,0,0-.8-.037c-.229.117-.323-.039-.209-.343v-.005a7.34,7.34,0,0,0,.306-1.137l.014-.085a.669.669,0,0,1,.583-.583,5.849,5.849,0,0,1,.868.071.865.865,0,0,0,.715-.419l1-1.457c.184-.269.225-.58.091-.694s-.423-.014-.643.225l-.8.868a.512.512,0,0,1-.782-.016l-.417-.49a2.6,2.6,0,0,1-.486-.9,1.207,1.207,0,0,1,.279-.9l.415-.488a.616.616,0,0,1,.845-.082l.118.1a1.094,1.094,0,0,0,.809.264.25.25,0,0,0,.174-.381c-.1-.153,0-.48.211-.726l.065-.077a.592.592,0,0,0-.065-.832l-.076-.066c-.246-.213-.369-.493-.275-.627a.557.557,0,0,1,.521-.173c.192.037.49-.154.664-.43l.34-.531a1.351,1.351,0,0,0,.112-1.052l-.077-.21a1.242,1.242,0,0,0-.622-.694c-.228-.076-.282-.369-.117-.648l3.153-5.373c.163-.279.4-.753.534-1.051l2.8-6.487c.128-.3.315-.8.414-1.106l1.792-5.614a2.948,2.948,0,0,1,.6-.98l1.179-1.179a2.181,2.181,0,0,0,.521-.939,2.331,2.331,0,0,0,0-.9.948.948,0,0,1,.328-.787l.248-.234a1.066,1.066,0,0,0,.272-.971l-.167-.6a2.1,2.1,0,0,0-.473-.847,1.146,1.146,0,0,1-.254-.864l.021-.214a1.325,1.325,0,0,0-.378-.985l-.583-.526a.78.78,0,0,1-.152-.912l.122-.218a2.488,2.488,0,0,0,.26-1.108l-.016-.347a2.1,2.1,0,0,1,.3-1.08l1.076-1.593c.183-.269.5-.692.707-.943l1.263-1.522a1.217,1.217,0,0,1,.963-.384l.563.068a.758.758,0,0,0,.774-.49l.042-.129a4.951,4.951,0,0,1,.465-.978,1.784,1.784,0,0,1,.764-.59,1.2,1.2,0,0,1,.969.167l.216.152a.567.567,0,0,0,.8-.153l.26-.4a.777.777,0,0,1,.876-.291l.211.077a.678.678,0,0,0,.818-.322l.029-.057a2.016,2.016,0,0,0,.159-1.083,1.943,1.943,0,0,1,.138-1.042,1,1,0,0,0-.114-.955l-.4-.519a.8.8,0,0,1,.011-.932l.1-.119a1.969,1.969,0,0,0,.368-1.052.716.716,0,0,1,.417-.7,1.243,1.243,0,0,1,.886.256l.869.67a.7.7,0,0,0,.887-.057l.345-.346a2.37,2.37,0,0,0,.542-1l.169-.79a1.619,1.619,0,0,1,.622-.9l.74-.476a5.417,5.417,0,0,1,1.061-.5l.194-.061a2.211,2.211,0,0,0,.923-.648l.184-.241a1.933,1.933,0,0,0,.359-.991,1.014,1.014,0,0,1,.522-.795l.412-.215a2.344,2.344,0,0,1,1.045-.24.476.476,0,0,0,.481-.555l-.06-.9a1.44,1.44,0,0,1,.387-1l.815-.78a1.721,1.721,0,0,0,.454-1l.015-.347a4.143,4.143,0,0,1,.25-1.137l.179-.435a1.824,1.824,0,0,1,.751-.809l.055-.03a2.872,2.872,0,0,0,.876-.741l.417-.572a2.27,2.27,0,0,0,.367-1.068l.031-.973a1.21,1.21,0,0,1,.526-.894l.029-.017a6.489,6.489,0,0,0,.935-.709l1.642-1.551a1.572,1.572,0,0,0,.429-1v-1.945a1.007,1.007,0,0,1,.539-.837l.593-.271a2.145,2.145,0,0,0,1.3-1.585l.006-.031a3.2,3.2,0,0,1,.5-1.04l.035-.042a1.808,1.808,0,0,0,.328-1.055l-.136-2.156a3.006,3.006,0,0,1,.193-1.133l.1-.231a1.33,1.33,0,0,1,.8-.688l.52-.131a3.12,3.12,0,0,1,1.152-.024l.858.177a.882.882,0,0,0,.879-.388l1.133-1.9a6.489,6.489,0,0,1,.709-.935l.438-.463a11.452,11.452,0,0,1,.862-.8l.269-.223a1.23,1.23,0,0,0,.394-.963l-.016-.144a3.07,3.07,0,0,1,.141-1.143l.152-.418c.111-.3.307-.8.433-1.1l.3-.718a.4.4,0,0,0-.358-.591l-.56-.046a.85.85,0,0,1-.718-.623l-.02-.1a1.3,1.3,0,0,0-.672-.811l-.373-.159a1.967,1.967,0,0,1-.82-.755l-.072-.137a2.221,2.221,0,0,1-.206-1.108l.068-.563a6.842,6.842,0,0,1,.257-1.148l.042-.129c.1-.308.284-.807.4-1.111l.057-.148a1.679,1.679,0,0,0-.016-1.1l-.3-.716a.914.914,0,0,0-.821-.52l-.486.019a.724.724,0,0,1-.713-.552l-.241-1.137a2.15,2.15,0,0,1,.116-1.119l.5-1.141a5.216,5.216,0,0,0,.321-1.126l.111-.775a.786.786,0,0,0-.368-.794,1.263,1.263,0,0,0-.975.065l-.551.286a5.871,5.871,0,0,1-1.1.418l-.244.061a1.093,1.093,0,0,1-.851-.1c-.153-.133-.127-.463.057-.729l.719-1.042a1.069,1.069,0,0,0,.058-1.008l-.072-.137c-.152-.287-.389-.764-.527-1.056l-.053-.113a1.807,1.807,0,0,1-.085-1.1l.154-.532a1.209,1.209,0,0,0-.221-1.014l-.129-.149c-.213-.245-.56-.647-.771-.9l-.065-.075a2.566,2.566,0,0,1-.491-1.03l-.133-.713a5.754,5.754,0,0,1-.07-1.169l.133-2.087a1.778,1.778,0,0,0-.331-1.051l-1.208-1.51a1.232,1.232,0,0,1-.2-1.015,2.694,2.694,0,0,1,.556-.938,1.777,1.777,0,0,0,.425-.971l.052-.7a5.628,5.628,0,0,0-.026-1.04,1.343,1.343,0,0,1,.243-.869.683.683,0,0,0-.1-.843l-.781-.814a1.9,1.9,0,0,0-1-.493l-.076-.009a1.726,1.726,0,0,1-.971-.512l-.065-.076a3.2,3.2,0,0,0-.906-.692,1.791,1.791,0,0,1-.758-.785l-.012-.029a1.153,1.153,0,0,0-.823-.614l-.5-.062a.752.752,0,0,1-.629-.663l-.052-.7a1.519,1.519,0,0,0-.51-.952l-.318-.248a1.728,1.728,0,0,0-1.054-.307l-.282.027a.889.889,0,0,1-.832-.465,1.651,1.651,0,0,1-.047-1.078l.1-.275a2.421,2.421,0,0,0,.06-1.132l-.218-.934a2.036,2.036,0,0,0-.592-.949l-.613-.5a1.737,1.737,0,0,1-.537-.962l-.257-1.886a3.307,3.307,0,0,0-.389-1.088Z" transform="translate(-82.801 -31.969)" fill="#eb058c"/>
</svg>
