<svg xmlns="http://www.w3.org/2000/svg" width="1600" height="901" viewBox="0 0 1600 901">
  <g id="image-structure-1" transform="translate(-160 -383)">
    <g id="Group_5620" data-name="Group 5620" transform="translate(-160.307 -156)">
      <rect id="Rectangle_3524" data-name="Rectangle 3524" width="167" height="65" rx="15" transform="translate(1136 539)" fill="#eb058c"/>
      <text id="ຖະມະບໍລິຫານ" transform="translate(1223 580)" fill="#fff" font-size="25" font-family="NotoSansLao-Regular, Noto Sans Lao"><tspan x="-61.013" y="0">ຖະມະບໍລິຫານ</tspan></text>
    </g>
    <g id="Group_5621" data-name="Group 5621" transform="translate(-359.307 -156)">
      <rect id="Rectangle_3524-2" data-name="Rectangle 3524" width="167" height="65" rx="15" transform="translate(1136 539)" fill="#eb058c"/>
      <text id="ສະພາບໍລິຫານ" transform="translate(1223 580)" fill="#fff" font-size="25" font-family="NotoSansLao-Regular, Noto Sans Lao"><tspan x="-62.087" y="0">ສະພາບໍລິຫານ</tspan></text>
    </g>
    <g id="Group_5619" data-name="Group 5619" transform="translate(-260.307 17)">
      <rect id="Rectangle_43" data-name="Rectangle 43" width="265" height="99" rx="15" transform="translate(1087 566)" fill="#ebebeb"/>
      <text id="ທ່ານ_ຊາມໄຊ_ພົມສຸອັມ" data-name="ທ່ານ ຊາມໄຊ ພົມສຸອັມ" transform="translate(1219 605)" fill="#eb058c" font-size="25" font-family="NotoSansLao-Regular, Noto Sans Lao"><tspan x="-98.638" y="0">ທ່ານ ຊາມໄຊ ພົມສຸອັມ</tspan></text>
      <text id="ຜູ້ອໍານວຍການໃຫຍ່" transform="translate(1219 644)" fill="#46474a" font-size="25" font-family="NotoSansLao-Regular, Noto Sans Lao"><tspan x="-83.2" y="0">ຜູ້ອໍານວຍການໃຫຍ່</tspan></text>
    </g>
    <path id="Path_15309" data-name="Path 15309" d="M8221.5,5116.991v49.149s-.168,2.721,1.263,4.28,4.459,1.957,4.459,1.957h187.754s2.647-.109,3.932-1.486,1.205-4.023,1.205-4.023v-49.877" transform="translate(-7361.301 -4655)" fill="none" stroke="#d8d8d8" stroke-linecap="round" stroke-linejoin="round" stroke-width="2"/>
    <line id="Line_106" data-name="Line 106" y2="52" transform="translate(959.193 517.5)" fill="none" stroke="#d8d8d8" stroke-width="2"/>
    <g id="Group_5622" data-name="Group 5622" transform="translate(1675.193 -587.31) rotate(90)">
      <path id="Path_15310" data-name="Path 15310" d="M8281.5,5146.991v39.149s-.168,2.721,1.263,4.28,4.459,1.957,4.459,1.957h127.754s2.647-.109,3.932-1.486,1.205-4.023,1.205-4.023v-39.877" transform="translate(-7131.304 -4655)" fill="none" stroke="#d8d8d8" stroke-linecap="round" stroke-linejoin="round" stroke-width="2"/>
      <line id="Line_107" data-name="Line 107" y2="32" transform="translate(1219.5 537.5)" fill="none" stroke="#d8d8d8" stroke-width="2"/>
      <circle id="Ellipse_43" data-name="Ellipse 43" cx="3.5" cy="3.5" r="3.5" transform="translate(1147.31 494.5) rotate(-90)" fill="#eb058c"/>
      <circle id="Ellipse_44" data-name="Ellipse 44" cx="3.5" cy="3.5" r="3.5" transform="translate(1285.31 494.5) rotate(-90)" fill="#eb058c"/>
      <circle id="Ellipse_45" data-name="Ellipse 45" cx="3.5" cy="3.5" r="3.5" transform="translate(1216.31 573.5) rotate(-90)" fill="#eb058c"/>
    </g>
    <g id="Group_5623" data-name="Group 5623" transform="translate(1680.193 -587.31) rotate(90)">
      <rect id="Rectangle_3525" data-name="Rectangle 3525" width="302" height="53" rx="12" transform="translate(1123.31 482.5) rotate(-90)" fill="#1480c4"/>
      <text id="ຫົວ_້າພະແນກໄອທີ" data-name="ຫົວໜ້າພະແນກໄອທີ" transform="translate(1156.31 331.5) rotate(-90)" fill="#fff" font-size="19" font-family="NotoSansLao-Regular, Noto Sans Lao"><tspan x="-67.64" y="0">ຫົວໜ້າພະແນກໄອທີ</tspan></text>
    </g>
    <g id="Group_5624" data-name="Group 5624" transform="translate(1680.193 -464.31) rotate(90)">
      <rect id="Rectangle_3525-2" data-name="Rectangle 3525" width="302" height="85" rx="12" transform="translate(1123.31 482.5) rotate(-90)" fill="#1480c4"/>
      <text id="ທ່ານ_ມາງ_ລັດດາພອມ_ດອງພະຈັມ" data-name="ທ່ານ ມາງ ລັດດາພອມ ດອງພະຈັມ" transform="translate(1156.31 445.5) rotate(-90)" fill="#fff" font-size="19" font-family="NotoSansLao-Regular, Noto Sans Lao"><tspan x="0" y="0">ທ່ານ ມາງ ລັດດາພອມ ດອງພະຈັມ</tspan></text>
      <text id="ຫົວ_້າພະແນກ_ຫ້ອງກາມ_-_ການຈັດຕັ້ງ" data-name="ຫົວໜ້າພະແນກ ຫ້ອງກາມ - ການຈັດຕັ້ງ" transform="translate(1187.31 331.5) rotate(-90)" fill="#fff" font-size="19" font-family="NotoSansLao-Regular, Noto Sans Lao"><tspan x="-129.058" y="0">ຫົວໜ້າພະແນກ ຫ້ອງກາມ - ການຈັດຕັ້ງ</tspan></text>
    </g>
    <circle id="Ellipse_41" data-name="Ellipse 41" cx="3.5" cy="3.5" r="3.5" transform="translate(856.693 458)" fill="#eb058c"/>
    <circle id="Ellipse_42" data-name="Ellipse 42" cx="3.5" cy="3.5" r="3.5" transform="translate(1055.693 458)" fill="#eb058c"/>
    <circle id="Ellipse_46" data-name="Ellipse 46" cx="3.5" cy="3.5" r="3.5" transform="translate(955.693 566)" fill="#eb058c"/>
    <g id="Group_5625" data-name="Group 5625" transform="translate(887.193 744)">
      <path id="Path_15311" data-name="Path 15311" d="M7856.5,5172.377v-49.149s-.168-2.721,1.263-4.28,4.459-1.957,4.459-1.957h865.754s2.647.109,3.932,1.486,1.205,4.023,1.205,4.023v49.877" transform="translate(-8221.494 -5084.868)" fill="none" stroke="#d8d8d8" stroke-linecap="round" stroke-linejoin="round" stroke-width="2"/>
      <line id="Line_108" data-name="Line 108" y1="84" transform="translate(73 -51.5)" fill="none" stroke="#d8d8d8" stroke-width="2"/>
      <circle id="Ellipse_47" data-name="Ellipse 47" cx="3.5" cy="3.5" r="3.5" transform="translate(69.5 -52)" fill="#eb058c"/>
    </g>
    <g id="Group_5626" data-name="Group 5626" transform="translate(783.5 -279.31) rotate(90)">
      <rect id="Rectangle_3525-3" data-name="Rectangle 3525" width="249" height="113" rx="12" transform="translate(1123.31 623.5) rotate(-90)" fill="#ebebeb"/>
      <text id="ທ່ານ_ມາງ_ລັດດາພອມ_ດອງພະຈັມ-2" data-name="ທ່ານ ມາງ ລັດດາພອມ
ດອງພະຈັມ" transform="translate(1157.31 498.5) rotate(-90)" fill="#eb058c" font-size="19" font-family="NotoSansLao-Regular, Noto Sans Lao"><tspan x="-72.95" y="0">ທ່ານ ມາງ ລັດດາພອມ</tspan><tspan x="-37.107" y="24">ດອງພະຈັມ</tspan></text>
      <text id="_ຮັກສາການ_ຮອງ_ຜູ່_ອໍາ_ນວຍ_ການ" data-name="(ຮັກສາການ) ຮອງ​ ຜູ່​ອໍາ​ນວຍ​ການ" transform="translate(1212.31 498.5) rotate(-90)" fill="#46474a" font-size="19" font-family="NotoSansLao-Regular, Noto Sans Lao"><tspan x="-109.25" y="0">(ຮັກສາການ) ຮອງ​ ຜູ່​ອໍາ​ນວຍ​ການ</tspan></text>
    </g>
    <g id="Group_5682" data-name="Group 5682" transform="translate(1053.5 -279.31) rotate(90)">
      <rect id="Rectangle_3525-4" data-name="Rectangle 3525" width="249" height="113" rx="12" transform="translate(1123.31 623.5) rotate(-90)" fill="#ebebeb"/>
      <text id="ທ່ານ_ມາງ_ລັດດາພອມ_ດອງພະຈັມ-3" data-name="ທ່ານ ມາງ ລັດດາພອມ
ດອງພະຈັມ" transform="translate(1157.31 498.5) rotate(-90)" fill="#eb058c" font-size="19" font-family="NotoSansLao-Regular, Noto Sans Lao"><tspan x="-72.95" y="0">ທ່ານ ມາງ ລັດດາພອມ</tspan><tspan x="-37.107" y="24">ດອງພະຈັມ</tspan></text>
      <text id="_ຮັກສາການ_ຮອງ_ຜູ່_ອໍາ_ນວຍ_ການ-2" data-name="(ຮັກສາການ) ຮອງ​ ຜູ່​ອໍາ​ນວຍ​ການ" transform="translate(1212.31 498.5) rotate(-90)" fill="#46474a" font-size="19" font-family="NotoSansLao-Regular, Noto Sans Lao"><tspan x="-109.25" y="0">(ຮັກສາການ) ຮອງ​ ຜູ່​ອໍາ​ນວຍ​ການ</tspan></text>
    </g>
    <g id="Group_5683" data-name="Group 5683" transform="translate(1323.5 -279.31) rotate(90)">
      <rect id="Rectangle_3525-5" data-name="Rectangle 3525" width="249" height="113" rx="12" transform="translate(1123.31 623.5) rotate(-90)" fill="#ebebeb"/>
      <text id="ທ່ານ_ມາງ_ລັດດາພອມ_ດອງພະຈັມ-4" data-name="ທ່ານ ມາງ ລັດດາພອມ
ດອງພະຈັມ" transform="translate(1157.31 498.5) rotate(-90)" fill="#eb058c" font-size="19" font-family="NotoSansLao-Regular, Noto Sans Lao"><tspan x="-72.95" y="0">ທ່ານ ມາງ ລັດດາພອມ</tspan><tspan x="-37.107" y="24">ດອງພະຈັມ</tspan></text>
      <text id="_ຮັກສາການ_ຮອງ_ຜູ່_ອໍາ_ນວຍ_ການ-3" data-name="(ຮັກສາການ) ຮອງ​ ຜູ່​ອໍາ​ນວຍ​ການ" transform="translate(1212.31 498.5) rotate(-90)" fill="#46474a" font-size="19" font-family="NotoSansLao-Regular, Noto Sans Lao"><tspan x="-109.25" y="0">(ຮັກສາການ) ຮອງ​ ຜູ່​ອໍາ​ນວຍ​ການ</tspan></text>
    </g>
    <g id="Group_5684" data-name="Group 5684" transform="translate(1594.5 -279.31) rotate(90)">
      <rect id="Rectangle_3525-6" data-name="Rectangle 3525" width="249" height="113" rx="12" transform="translate(1123.31 623.5) rotate(-90)" fill="#ebebeb"/>
      <text id="ທ່ານ_ມາງ_ລັດດາພອມ_ດອງພະຈັມ-5" data-name="ທ່ານ ມາງ ລັດດາພອມ
ດອງພະຈັມ" transform="translate(1157.31 498.5) rotate(-90)" fill="#eb058c" font-size="19" font-family="NotoSansLao-Regular, Noto Sans Lao"><tspan x="-72.95" y="0">ທ່ານ ມາງ ລັດດາພອມ</tspan><tspan x="-37.107" y="24">ດອງພະຈັມ</tspan></text>
      <text id="_ຮັກສາການ_ຮອງ_ຜູ່_ອໍາ_ນວຍ_ການ-4" data-name="(ຮັກສາການ) ຮອງ​ ຜູ່​ອໍາ​ນວຍ​ການ" transform="translate(1212.31 498.5) rotate(-90)" fill="#46474a" font-size="19" font-family="NotoSansLao-Regular, Noto Sans Lao"><tspan x="-109.25" y="0">(ຮັກສາການ) ຮອງ​ ຜູ່​ອໍາ​ນວຍ​ການ</tspan></text>
    </g>
    <g id="Group_5685" data-name="Group 5685" transform="translate(1864.5 -279.31) rotate(90)">
      <rect id="Rectangle_3525-7" data-name="Rectangle 3525" width="249" height="113" rx="12" transform="translate(1123.31 623.5) rotate(-90)" fill="#ebebeb"/>
      <text id="ທ່ານ_ມາງ_ລັດດາພອມ_ດອງພະຈັມ-6" data-name="ທ່ານ ມາງ ລັດດາພອມ
ດອງພະຈັມ" transform="translate(1157.31 498.5) rotate(-90)" fill="#eb058c" font-size="19" font-family="NotoSansLao-Regular, Noto Sans Lao"><tspan x="-72.95" y="0">ທ່ານ ມາງ ລັດດາພອມ</tspan><tspan x="-37.107" y="24">ດອງພະຈັມ</tspan></text>
      <text id="_ຮັກສາການ_ຮອງ_ຜູ່_ອໍາ_ນວຍ_ການ-5" data-name="(ຮັກສາການ) ຮອງ​ ຜູ່​ອໍາ​ນວຍ​ການ" transform="translate(1212.31 498.5) rotate(-90)" fill="#46474a" font-size="19" font-family="NotoSansLao-Regular, Noto Sans Lao"><tspan x="-109.25" y="0">(ຮັກສາການ) ຮອງ​ ຜູ່​ອໍາ​ນວຍ​ການ</tspan></text>
    </g>
    <g id="Group_5686" data-name="Group 5686" transform="translate(2134.5 -279.31) rotate(90)">
      <rect id="Rectangle_3525-8" data-name="Rectangle 3525" width="249" height="113" rx="12" transform="translate(1123.31 623.5) rotate(-90)" fill="#ebebeb"/>
      <text id="ທ່ານ_ມາງ_ລັດດາພອມ_ດອງພະຈັມ-7" data-name="ທ່ານ ມາງ ລັດດາພອມ
ດອງພະຈັມ" transform="translate(1157.31 498.5) rotate(-90)" fill="#eb058c" font-size="19" font-family="NotoSansLao-Regular, Noto Sans Lao"><tspan x="-72.95" y="0">ທ່ານ ມາງ ລັດດາພອມ</tspan><tspan x="-37.107" y="24">ດອງພະຈັມ</tspan></text>
      <text id="_ຮັກສາການ_ຮອງ_ຜູ່_ອໍາ_ນວຍ_ການ-6" data-name="(ຮັກສາການ) ຮອງ​ ຜູ່​ອໍາ​ນວຍ​ການ" transform="translate(1212.31 498.5) rotate(-90)" fill="#46474a" font-size="19" font-family="NotoSansLao-Regular, Noto Sans Lao"><tspan x="-109.25" y="0">(ຮັກສາການ) ຮອງ​ ຜູ່​ອໍາ​ນວຍ​ການ</tspan></text>
    </g>
    <g id="Group_5636" data-name="Group 5636" transform="translate(-147.307)">
      <line id="Line_109" data-name="Line 109" y1="54" transform="translate(844.5 776.5)" fill="none" stroke="#d8d8d8" stroke-width="2"/>
    </g>
    <g id="Group_5628" data-name="Group 5628" transform="translate(1412.193 -260.31) rotate(90)">
      <line id="Line_111" data-name="Line 111" x1="52.5" transform="translate(1036.31 364)" fill="none" stroke="#d8d8d8" stroke-width="2"/>
    </g>
    <g id="Group_5629" data-name="Group 5629" transform="translate(1507.193 -260.31) rotate(90)">
      <line id="Line_110" data-name="Line 110" x1="53" transform="translate(1037.81 283)" fill="none" stroke="#d8d8d8" stroke-width="2"/>
    </g>
    <g id="Group_5637" data-name="Group 5637" transform="translate(1343.692 -260.31) rotate(90)">
      <line id="Line_112" data-name="Line 112" x1="54" transform="translate(1036.81 471)" fill="none" stroke="#d8d8d8" stroke-width="2"/>
    </g>
    <circle id="Ellipse_57" data-name="Ellipse 57" cx="3.5" cy="3.5" r="3.5" transform="translate(518.5 827)" fill="#eb058c"/>
    <circle id="Ellipse_58" data-name="Ellipse 58" cx="3.5" cy="3.5" r="3.5" transform="translate(693.5 827)" fill="#eb058c"/>
    <circle id="Ellipse_59" data-name="Ellipse 59" cx="3.5" cy="3.5" r="3.5" transform="translate(869.5 827)" fill="#eb058c"/>
    <circle id="Ellipse_60" data-name="Ellipse 60" cx="3.5" cy="3.5" r="3.5" transform="translate(1044.5 827)" fill="#eb058c"/>
    <circle id="Ellipse_61" data-name="Ellipse 61" cx="3.5" cy="3.5" r="3.5" transform="translate(1220.5 827.009)" fill="#eb058c"/>
    <circle id="Ellipse_62" data-name="Ellipse 62" cx="3.5" cy="3.5" r="3.5" transform="translate(1395.5 827.009)" fill="#eb058c"/>
    <g id="Group_5643" data-name="Group 5643" transform="translate(735.5 -37.31) rotate(90)">
      <rect id="Rectangle_3525-9" data-name="Rectangle 3525" width="129" height="198" rx="12" transform="translate(1123.31 575.5) rotate(-90)" fill="#ebebeb"/>
      <text id="ທ່ານ_ມາງ_ລັດດາພອມ_ດອງພະຈັມ-8" data-name="ທ່ານ ມາງ
ລັດດາພອມ
ດອງພະຈັມ" transform="translate(1157.31 510.5) rotate(-90)" fill="#eb058c" font-size="17" font-family="NotoSansLao-Regular, Noto Sans Lao"><tspan x="-27.463" y="0">ທ່ານ ມາງ</tspan><tspan x="-35.598" y="24">ລັດດາພອມ</tspan><tspan x="-33.201" y="48">ດອງພະຈັມ</tspan></text>
      <text id="_ຮັກສາການ_ຮອງ_ຜູ່_ອໍາ_ນວຍ_ການ-7" data-name="(ຮັກສາການ)
ຮອງ​
ຜູ່​ອໍາ​ນວຍ​ການ" transform="translate(1238.31 510.5) rotate(-90)" fill="#46474a" font-size="17" font-family="NotoSansLao-Regular, Noto Sans Lao"><tspan x="-36.89" y="0">(ຮັກສາການ)</tspan><tspan x="-13.634" y="28">ຮອງ​</tspan><tspan x="-42.806" y="56">ຜູ່​ອໍາ​ນວຍ​ການ</tspan></text>
    </g>
    <g id="Group_5667" data-name="Group 5667" transform="translate(882.5 -37.31) rotate(90)">
      <rect id="Rectangle_3525-10" data-name="Rectangle 3525" width="129" height="198" rx="12" transform="translate(1123.31 575.5) rotate(-90)" fill="#ebebeb"/>
      <text id="ທ່ານ_ມາງ_ລັດດາພອມ_ດອງພະຈັມ-9" data-name="ທ່ານ ມາງ
ລັດດາພອມ
ດອງພະຈັມ" transform="translate(1157.31 510.5) rotate(-90)" fill="#eb058c" font-size="17" font-family="NotoSansLao-Regular, Noto Sans Lao"><tspan x="-27.463" y="0">ທ່ານ ມາງ</tspan><tspan x="-35.598" y="24">ລັດດາພອມ</tspan><tspan x="-33.201" y="48">ດອງພະຈັມ</tspan></text>
      <text id="_ຮັກສາການ_ຮອງ_ຜູ່_ອໍາ_ນວຍ_ການ-8" data-name="(ຮັກສາການ)
ຮອງ​
ຜູ່​ອໍາ​ນວຍ​ການ" transform="translate(1238.31 510.5) rotate(-90)" fill="#46474a" font-size="17" font-family="NotoSansLao-Regular, Noto Sans Lao"><tspan x="-36.89" y="0">(ຮັກສາການ)</tspan><tspan x="-13.634" y="28">ຮອງ​</tspan><tspan x="-42.806" y="56">ຜູ່​ອໍາ​ນວຍ​ການ</tspan></text>
    </g>
    <g id="Group_5668" data-name="Group 5668" transform="translate(1029.5 -37.31) rotate(90)">
      <rect id="Rectangle_3525-11" data-name="Rectangle 3525" width="129" height="198" rx="12" transform="translate(1123.31 575.5) rotate(-90)" fill="#ebebeb"/>
      <text id="ທ່ານ_ມາງ_ລັດດາພອມ_ດອງພະຈັມ-10" data-name="ທ່ານ ມາງ
ລັດດາພອມ
ດອງພະຈັມ" transform="translate(1157.31 510.5) rotate(-90)" fill="#eb058c" font-size="17" font-family="NotoSansLao-Regular, Noto Sans Lao"><tspan x="-27.463" y="0">ທ່ານ ມາງ</tspan><tspan x="-35.598" y="24">ລັດດາພອມ</tspan><tspan x="-33.201" y="48">ດອງພະຈັມ</tspan></text>
      <text id="_ຮັກສາການ_ຮອງ_ຜູ່_ອໍາ_ນວຍ_ການ-9" data-name="(ຮັກສາການ)
ຮອງ​
ຜູ່​ອໍາ​ນວຍ​ການ" transform="translate(1238.31 510.5) rotate(-90)" fill="#46474a" font-size="17" font-family="NotoSansLao-Regular, Noto Sans Lao"><tspan x="-36.89" y="0">(ຮັກສາການ)</tspan><tspan x="-13.634" y="28">ຮອງ​</tspan><tspan x="-42.806" y="56">ຜູ່​ອໍາ​ນວຍ​ການ</tspan></text>
    </g>
    <g id="Group_5669" data-name="Group 5669" transform="translate(1176.5 -37.31) rotate(90)">
      <rect id="Rectangle_3525-12" data-name="Rectangle 3525" width="129" height="198" rx="12" transform="translate(1123.31 575.5) rotate(-90)" fill="#ebebeb"/>
      <text id="ທ່ານ_ມາງ_ລັດດາພອມ_ດອງພະຈັມ-11" data-name="ທ່ານ ມາງ
ລັດດາພອມ
ດອງພະຈັມ" transform="translate(1157.31 510.5) rotate(-90)" fill="#eb058c" font-size="17" font-family="NotoSansLao-Regular, Noto Sans Lao"><tspan x="-27.463" y="0">ທ່ານ ມາງ</tspan><tspan x="-35.598" y="24">ລັດດາພອມ</tspan><tspan x="-33.201" y="48">ດອງພະຈັມ</tspan></text>
      <text id="_ຮັກສາການ_ຮອງ_ຜູ່_ອໍາ_ນວຍ_ການ-10" data-name="(ຮັກສາການ)
ຮອງ​
ຜູ່​ອໍາ​ນວຍ​ການ" transform="translate(1238.31 510.5) rotate(-90)" fill="#46474a" font-size="17" font-family="NotoSansLao-Regular, Noto Sans Lao"><tspan x="-36.89" y="0">(ຮັກສາການ)</tspan><tspan x="-13.634" y="28">ຮອງ​</tspan><tspan x="-42.806" y="56">ຜູ່​ອໍາ​ນວຍ​ການ</tspan></text>
    </g>
    <g id="Group_5670" data-name="Group 5670" transform="translate(1323.5 -37.31) rotate(90)">
      <rect id="Rectangle_3525-13" data-name="Rectangle 3525" width="129" height="198" rx="12" transform="translate(1123.31 575.5) rotate(-90)" fill="#ebebeb"/>
      <text id="ທ່ານ_ມາງ_ລັດດາພອມ_ດອງພະຈັມ-12" data-name="ທ່ານ ມາງ
ລັດດາພອມ
ດອງພະຈັມ" transform="translate(1157.31 510.5) rotate(-90)" fill="#eb058c" font-size="17" font-family="NotoSansLao-Regular, Noto Sans Lao"><tspan x="-27.463" y="0">ທ່ານ ມາງ</tspan><tspan x="-35.598" y="24">ລັດດາພອມ</tspan><tspan x="-33.201" y="48">ດອງພະຈັມ</tspan></text>
      <text id="_ຮັກສາການ_ຮອງ_ຜູ່_ອໍາ_ນວຍ_ການ-11" data-name="(ຮັກສາການ)
ຮອງ​
ຜູ່​ອໍາ​ນວຍ​ການ" transform="translate(1238.31 510.5) rotate(-90)" fill="#46474a" font-size="17" font-family="NotoSansLao-Regular, Noto Sans Lao"><tspan x="-36.89" y="0">(ຮັກສາການ)</tspan><tspan x="-13.634" y="28">ຮອງ​</tspan><tspan x="-42.806" y="56">ຜູ່​ອໍາ​ນວຍ​ການ</tspan></text>
    </g>
    <g id="Group_5671" data-name="Group 5671" transform="translate(1471.5 -37.31) rotate(90)">
      <rect id="Rectangle_3525-14" data-name="Rectangle 3525" width="129" height="198" rx="12" transform="translate(1123.31 575.5) rotate(-90)" fill="#ebebeb"/>
      <text id="ທ່ານ_ມາງ_ລັດດາພອມ_ດອງພະຈັມ-13" data-name="ທ່ານ ມາງ
ລັດດາພອມ
ດອງພະຈັມ" transform="translate(1157.31 510.5) rotate(-90)" fill="#eb058c" font-size="17" font-family="NotoSansLao-Regular, Noto Sans Lao"><tspan x="-27.463" y="0">ທ່ານ ມາງ</tspan><tspan x="-35.598" y="24">ລັດດາພອມ</tspan><tspan x="-33.201" y="48">ດອງພະຈັມ</tspan></text>
      <text id="_ຮັກສາການ_ຮອງ_ຜູ່_ອໍາ_ນວຍ_ການ-12" data-name="(ຮັກສາການ)
ຮອງ​
ຜູ່​ອໍາ​ນວຍ​ການ" transform="translate(1238.31 510.5) rotate(-90)" fill="#46474a" font-size="17" font-family="NotoSansLao-Regular, Noto Sans Lao"><tspan x="-36.89" y="0">(ຮັກສາການ)</tspan><tspan x="-13.634" y="28">ຮອງ​</tspan><tspan x="-42.806" y="56">ຜູ່​ອໍາ​ນວຍ​ການ</tspan></text>
    </g>
    <g id="Group_5672" data-name="Group 5672" transform="translate(1618.5 -37.31) rotate(90)">
      <rect id="Rectangle_3525-15" data-name="Rectangle 3525" width="129" height="198" rx="12" transform="translate(1123.31 575.5) rotate(-90)" fill="#ebebeb"/>
      <text id="ທ່ານ_ມາງ_ລັດດາພອມ_ດອງພະຈັມ-14" data-name="ທ່ານ ມາງ
ລັດດາພອມ
ດອງພະຈັມ" transform="translate(1157.31 510.5) rotate(-90)" fill="#eb058c" font-size="17" font-family="NotoSansLao-Regular, Noto Sans Lao"><tspan x="-27.463" y="0">ທ່ານ ມາງ</tspan><tspan x="-35.598" y="24">ລັດດາພອມ</tspan><tspan x="-33.201" y="48">ດອງພະຈັມ</tspan></text>
      <text id="_ຮັກສາການ_ຮອງ_ຜູ່_ອໍາ_ນວຍ_ການ-13" data-name="(ຮັກສາການ)
ຮອງ​
ຜູ່​ອໍາ​ນວຍ​ການ" transform="translate(1238.31 510.5) rotate(-90)" fill="#46474a" font-size="17" font-family="NotoSansLao-Regular, Noto Sans Lao"><tspan x="-36.89" y="0">(ຮັກສາການ)</tspan><tspan x="-13.634" y="28">ຮອງ​</tspan><tspan x="-42.806" y="56">ຜູ່​ອໍາ​ນວຍ​ການ</tspan></text>
    </g>
    <g id="Group_5673" data-name="Group 5673" transform="translate(1765.5 -37.31) rotate(90)">
      <rect id="Rectangle_3525-16" data-name="Rectangle 3525" width="129" height="198" rx="12" transform="translate(1123.31 575.5) rotate(-90)" fill="#ebebeb"/>
      <text id="ທ່ານ_ມາງ_ລັດດາພອມ_ດອງພະຈັມ-15" data-name="ທ່ານ ມາງ
ລັດດາພອມ
ດອງພະຈັມ" transform="translate(1157.31 510.5) rotate(-90)" fill="#eb058c" font-size="17" font-family="NotoSansLao-Regular, Noto Sans Lao"><tspan x="-27.463" y="0">ທ່ານ ມາງ</tspan><tspan x="-35.598" y="24">ລັດດາພອມ</tspan><tspan x="-33.201" y="48">ດອງພະຈັມ</tspan></text>
      <text id="_ຮັກສາການ_ຮອງ_ຜູ່_ອໍາ_ນວຍ_ການ-14" data-name="(ຮັກສາການ)
ຮອງ​
ຜູ່​ອໍາ​ນວຍ​ການ" transform="translate(1238.31 510.5) rotate(-90)" fill="#46474a" font-size="17" font-family="NotoSansLao-Regular, Noto Sans Lao"><tspan x="-36.89" y="0">(ຮັກສາການ)</tspan><tspan x="-13.634" y="28">ຮອງ​</tspan><tspan x="-42.806" y="56">ຜູ່​ອໍາ​ນວຍ​ການ</tspan></text>
    </g>
    <g id="Group_5674" data-name="Group 5674" transform="translate(1912.5 -37.31) rotate(90)">
      <rect id="Rectangle_3525-17" data-name="Rectangle 3525" width="129" height="198" rx="12" transform="translate(1123.31 575.5) rotate(-90)" fill="#ebebeb"/>
      <text id="ທ່ານ_ມາງ_ລັດດາພອມ_ດອງພະຈັມ-16" data-name="ທ່ານ ມາງ
ລັດດາພອມ
ດອງພະຈັມ" transform="translate(1157.31 510.5) rotate(-90)" fill="#eb058c" font-size="17" font-family="NotoSansLao-Regular, Noto Sans Lao"><tspan x="-27.463" y="0">ທ່ານ ມາງ</tspan><tspan x="-35.598" y="24">ລັດດາພອມ</tspan><tspan x="-33.201" y="48">ດອງພະຈັມ</tspan></text>
      <text id="_ຮັກສາການ_ຮອງ_ຜູ່_ອໍາ_ນວຍ_ການ-15" data-name="(ຮັກສາການ)
ຮອງ​
ຜູ່​ອໍາ​ນວຍ​ການ" transform="translate(1238.31 510.5) rotate(-90)" fill="#46474a" font-size="17" font-family="NotoSansLao-Regular, Noto Sans Lao"><tspan x="-36.89" y="0">(ຮັກສາການ)</tspan><tspan x="-13.634" y="28">ຮອງ​</tspan><tspan x="-42.806" y="56">ຜູ່​ອໍາ​ນວຍ​ການ</tspan></text>
    </g>
    <g id="Group_5675" data-name="Group 5675" transform="translate(2059.5 -37.31) rotate(90)">
      <rect id="Rectangle_3525-18" data-name="Rectangle 3525" width="129" height="198" rx="12" transform="translate(1123.31 575.5) rotate(-90)" fill="#ebebeb"/>
      <text id="ທ່ານ_ມາງ_ລັດດາພອມ_ດອງພະຈັມ-17" data-name="ທ່ານ ມາງ
ລັດດາພອມ
ດອງພະຈັມ" transform="translate(1157.31 510.5) rotate(-90)" fill="#eb058c" font-size="17" font-family="NotoSansLao-Regular, Noto Sans Lao"><tspan x="-27.463" y="0">ທ່ານ ມາງ</tspan><tspan x="-35.598" y="24">ລັດດາພອມ</tspan><tspan x="-33.201" y="48">ດອງພະຈັມ</tspan></text>
      <text id="_ຮັກສາການ_ຮອງ_ຜູ່_ອໍາ_ນວຍ_ການ-16" data-name="(ຮັກສາການ)
ຮອງ​
ຜູ່​ອໍາ​ນວຍ​ການ" transform="translate(1238.31 510.5) rotate(-90)" fill="#46474a" font-size="17" font-family="NotoSansLao-Regular, Noto Sans Lao"><tspan x="-36.89" y="0">(ຮັກສາການ)</tspan><tspan x="-13.634" y="28">ຮອງ​</tspan><tspan x="-42.806" y="56">ຜູ່​ອໍາ​ນວຍ​ການ</tspan></text>
    </g>
    <g id="Group_5676" data-name="Group 5676" transform="translate(2206.5 -37.401) rotate(90)">
      <rect id="Rectangle_3525-19" data-name="Rectangle 3525" width="129" height="198" rx="12" transform="translate(1123.31 575.5) rotate(-90)" fill="#ebebeb"/>
      <text id="ທ່ານ_ມາງ_ລັດດາພອມ_ດອງພະຈັມ-18" data-name="ທ່ານ ມາງ
ລັດດາພອມ
ດອງພະຈັມ" transform="translate(1157.31 510.5) rotate(-90)" fill="#eb058c" font-size="17" font-family="NotoSansLao-Regular, Noto Sans Lao"><tspan x="-27.463" y="0">ທ່ານ ມາງ</tspan><tspan x="-35.598" y="24">ລັດດາພອມ</tspan><tspan x="-33.201" y="48">ດອງພະຈັມ</tspan></text>
      <text id="_ຮັກສາການ_ຮອງ_ຜູ່_ອໍາ_ນວຍ_ການ-17" data-name="(ຮັກສາການ)
ຮອງ​
ຜູ່​ອໍາ​ນວຍ​ການ" transform="translate(1238.31 510.5) rotate(-90)" fill="#46474a" font-size="17" font-family="NotoSansLao-Regular, Noto Sans Lao"><tspan x="-36.89" y="0">(ຮັກສາການ)</tspan><tspan x="-13.634" y="28">ຮອງ​</tspan><tspan x="-42.806" y="56">ຜູ່​ອໍາ​ນວຍ​ການ</tspan></text>
    </g>
    <circle id="Ellipse_64" data-name="Ellipse 64" cx="3.5" cy="3.5" r="3.5" transform="translate(869.5 827)" fill="#eb058c"/>
    <g id="Group_5687" data-name="Group 5687" transform="translate(221.5 967)">
      <path id="Path_15312" data-name="Path 15312" d="M8176.384,5172.377v-49.149s.168-2.721-1.263-4.28-4.459-1.957-4.459-1.957H7943.51" transform="translate(-7879.583 -5062.991)" fill="none" stroke="#d8d8d8" stroke-linecap="round" stroke-linejoin="round" stroke-width="2"/>
      <circle id="Ellipse_63" data-name="Ellipse 63" cx="3.5" cy="3.5" r="3.5" transform="translate(59)" fill="#eb058c"/>
      <g id="Group_5655" data-name="Group 5655" transform="translate(0 54)">
        <circle id="Ellipse_65" data-name="Ellipse 65" cx="3.5" cy="3.5" r="3.5" transform="translate(0 48.386)" fill="#eb058c"/>
      </g>
      <g id="Group_5656" data-name="Group 5656" transform="translate(146.5 54)">
        <line id="Line_113" data-name="Line 113" y1="54" transform="translate(3.5)" fill="none" stroke="#d8d8d8" stroke-width="2"/>
        <circle id="Ellipse_65-2" data-name="Ellipse 65" cx="3.5" cy="3.5" r="3.5" transform="translate(0 48.386)" fill="#eb058c"/>
        <circle id="Ellipse_66" data-name="Ellipse 66" cx="3.5" cy="3.5" r="3.5" transform="translate(147 53.386)" fill="#eb058c"/>
      </g>
      <path id="Path_15326" data-name="Path 15326" d="M7883.5,5164.7v-41.47s-.168-2.721,1.263-4.28,4.459-1.957,4.459-1.957h220.424" transform="translate(-7879.583 -5062.991)" fill="none" stroke="#d8d8d8" stroke-linecap="round" stroke-linejoin="round" stroke-width="2"/>
      <line id="Line_119" data-name="Line 119" y1="47" transform="translate(62.5 7)" fill="none" stroke="#d8d8d8" stroke-width="2"/>
    </g>
    <g id="Group_5680" data-name="Group 5680" transform="translate(550.5 967)">
      <path id="Path_15316" data-name="Path 15316" d="M8127.759,5122.022v44.118s-.168,2.721,1.263,4.28,4.459,1.957,4.459,1.957h95.309" transform="translate(-8124.253 -5118.522)" fill="none" stroke="#d8d8d8" stroke-linecap="round" stroke-linejoin="round" stroke-width="2"/>
      <path id="Path_15317" data-name="Path 15317" d="M7868.447,5170.275v-47.047s.168-2.721-1.263-4.28-4.459-1.957-4.459-1.957h-6.232" transform="translate(-7754.453 -5063.137)" fill="none" stroke="#d8d8d8" stroke-linecap="round" stroke-linejoin="round" stroke-width="2"/>
      <circle id="Ellipse_67" data-name="Ellipse 67" cx="3.5" cy="3.5" r="3.5" transform="translate(110.5 102.24)" fill="#eb058c"/>
      <circle id="Ellipse_68" data-name="Ellipse 68" cx="3.5" cy="3.5" r="3.5" fill="#eb058c"/>
    </g>
    <g id="Group_5688" data-name="Group 5688" transform="translate(0 -79)">
      <path id="Path_15318" data-name="Path 15318" d="M7856.526,5164.155v-52.539" transform="translate(-7043.994 -4011.617)" fill="none" stroke="#d8d8d8" stroke-linecap="round" stroke-linejoin="round" stroke-width="2"/>
      <path id="Path_15320" data-name="Path 15320" d="M7901.461,5170.03l-.051-46.8s.168-2.721-1.263-4.28-4.459-1.957-4.459-1.957l-107.734.162" transform="translate(-6983.961 -4016.991)" fill="none" stroke="#d8d8d8" stroke-linecap="round" stroke-linejoin="round" stroke-width="2"/>
      <circle id="Ellipse_69" data-name="Ellipse 69" cx="3.5" cy="3.5" r="3.5" transform="translate(809 1148)" fill="#eb058c"/>
      <circle id="Ellipse_70" data-name="Ellipse 70" cx="3.5" cy="3.5" r="3.5" transform="translate(914 1148)" fill="#eb058c"/>
      <circle id="Ellipse_71" data-name="Ellipse 71" cx="3.5" cy="3.5" r="3.5" transform="translate(766 1046)" fill="#eb058c"/>
      <path id="Path_15327" data-name="Path 15327" d="M7753.594,5123.992l.051,39.8s-.168,2.721,1.263,4.28,4.459,1.957,4.459,1.957h96.055" transform="translate(-6983.961 -4070.031)" fill="none" stroke="#d8d8d8" stroke-linecap="round" stroke-linejoin="round" stroke-width="2"/>
    </g>
    <g id="Group_5689" data-name="Group 5689" transform="translate(20.712 -69.386)">
      <g id="Group_5666" data-name="Group 5666" transform="translate(601.5 -10)">
        <path id="Path_15323" data-name="Path 15323" d="M0,43.724V-9.889" transform="translate(486 1110.276)" fill="none" stroke="#d8d8d8" stroke-width="2"/>
        <circle id="Ellipse_65-3" data-name="Ellipse 65" cx="3.5" cy="3.5" r="3.5" transform="translate(482.5 1148.386)" fill="#eb058c"/>
      </g>
      <path id="Path_15322" data-name="Path 15322" d="M7856.5,5122.853v43.288s-.168,2.721,1.263,4.28,4.459,1.957,4.459,1.957h220.685" transform="translate(-6949.761 -4082.377)" fill="none" stroke="#d8d8d8" stroke-linecap="round" stroke-linejoin="round" stroke-width="2"/>
      <path id="Path_15321" data-name="Path 15321" d="M7868.41,5120.807v45.333s.168,2.721-1.263,4.28-4.459,1.957-4.459,1.957H7732.339" transform="translate(-6611.127 -4082.377)" fill="none" stroke="#d8d8d8" stroke-linecap="round" stroke-linejoin="round" stroke-width="2"/>
      <circle id="Ellipse_72" data-name="Ellipse 72" cx="3.5" cy="3.5" r="3.5" transform="translate(903.232 1036)" fill="#eb058c"/>
      <circle id="Ellipse_73" data-name="Ellipse 73" cx="3.5" cy="3.5" r="3.5" transform="translate(1253.788 1036)" fill="#eb058c"/>
    </g>
    <g id="Group_5679" data-name="Group 5679" transform="translate(1268.563 966.991)">
      <path id="Path_15324" data-name="Path 15324" d="M8176.384,5171.377v-48.149s.168-2.721-1.263-4.28-4.459-1.957-4.459-1.957H7973.494" transform="translate(-7879.583 -5062.991)" fill="none" stroke="#d8d8d8" stroke-linecap="round" stroke-linejoin="round" stroke-width="2"/>
      <path id="Path_15325" data-name="Path 15325" d="M8149.384,5122.022v50.354" transform="translate(-8017.378 -5118.377)" fill="none" stroke="#d8d8d8" stroke-linecap="round" stroke-linejoin="round" stroke-width="2"/>
      <circle id="Ellipse_74" data-name="Ellipse 74" cx="3.5" cy="3.5" r="3.5" transform="translate(128.5)" fill="#eb058c"/>
      <g id="Group_5677" data-name="Group 5677" transform="translate(20 54)">
        <circle id="Ellipse_65-4" data-name="Ellipse 65" cx="3.5" cy="3.5" r="3.5" transform="translate(0 48.386)" fill="#eb058c"/>
      </g>
      <g id="Group_5678" data-name="Group 5678" transform="translate(146.5 54)">
        <line id="Line_113-2" data-name="Line 113" y1="54" transform="translate(-14.5)" fill="none" stroke="#d8d8d8" stroke-width="2"/>
        <circle id="Ellipse_65-5" data-name="Ellipse 65" cx="3.5" cy="3.5" r="3.5" transform="translate(-18 48.386)" fill="#eb058c"/>
        <circle id="Ellipse_66-2" data-name="Ellipse 66" cx="3.5" cy="3.5" r="3.5" transform="translate(147 48.386)" fill="#eb058c"/>
      </g>
      <path id="Path_15328" data-name="Path 15328" d="M7973.5,5164.377v-41.149s-.168-2.721,1.263-4.28,4.459-1.957,4.459-1.957h197.167" transform="translate(-7949.995 -5062.991)" fill="none" stroke="#d8d8d8" stroke-linecap="round" stroke-linejoin="round" stroke-width="2"/>
    </g>
    <g id="Group_5681" data-name="Group 5681" transform="translate(1660 966.668)">
      <path id="Path_15316-2" data-name="Path 15316" d="M8127.759,5131.022v35.118s-.168,2.721,1.263,4.28,4.459,1.957,4.459,1.957h30.251" transform="translate(-8152.253 -5128.2)" fill="none" stroke="#d8d8d8" stroke-linecap="round" stroke-linejoin="round" stroke-width="2"/>
      <path id="Path_15317-2" data-name="Path 15317" d="M7868.447,5170.275v-57.047s.168-2.721-1.263-4.28-4.459-1.957-4.459-1.957h-23.232" transform="translate(-7833.453 -5063.137)" fill="none" stroke="#d8d8d8" stroke-linecap="round" stroke-linejoin="round" stroke-width="2"/>
      <circle id="Ellipse_67-2" data-name="Ellipse 67" cx="3.5" cy="3.5" r="3.5" transform="translate(31.5 102.24)" fill="#eb058c"/>
      <circle id="Ellipse_68-2" data-name="Ellipse 68" cx="3.5" cy="3.5" r="3.5" transform="translate(-28 0.323)" fill="#eb058c"/>
    </g>
  </g>
</svg>
